  0
SECTION
  2
HEADER
  9
$ACADVER
  1
AC1009
  9
$MEASUREMENT
  70
0
  9
$INSUNITS
  70
1
  9
$DIMLFAC
  40
0.999999995904
  9
$INSBASE
  10
0.0
  20
0.0
  30
0.0
  9
$EXTMIN
  10
0.000000270333
  20
0.000000120148
  9
$EXTMAX
  10
5.802110746624
  20
4.500000079872
  9
$LIMMIN
  10
0.000000270333
  20
0.000000120148
  9
$LIMMAX
  10
5.802110746624
  20
4.500000079872
  9
$CLAYER
  8
0
  0
ENDSEC
  0
SECTION
  2
TABLES
  0
TABLE
  2
LTYPE
  70
2
  0
LTYPE
  2
CONTINUOUS
  70
65
  3
Solid line
  72
65
  73
0
  40
0
  0
LTYPE
  2
DASHED
  70
65
  3
 _ _ _ _ _ _ _ _ _ _ _ _ _ _ _ _ _ _ _ _ _ _
  72
65
  73
2
  40
1.999999991808
  49
0.999999995904
  49
-0.999999995904
  0
ENDTAB
  0
TABLE
  2
LAYER
  70
1
  0
LAYER
  2
0
  70
0
  62
7
  6
CONTINUOUS
  0
ENDTAB
  0
ENDSEC
  0
SECTION
  2
BLOCKS
  0
ENDSEC
  0
SECTION
  2
ENTITIES
  0
ARC
  8
0
  10
4.557305583804
  20
2.093750210259
  30
0.02
  40
0.09375
  50
270
  51
360
  0
LINE
  8
0
  10
4.65105552373
  20
2.093750210259
  30
0.02
  11
4.65105552373
  21
2.187500210259
  31
0.02
  0
ARC
  8
0
  10
4.65105552373
  20
2.140625180222
  30
0.02
  40
0.046875
  50
64
  51
90
  0
LINE
  8
0
  10
4.671604126457
  20
2.182756108562
  30
0.02
  11
4.812040696191
  21
2.114260616876
  31
0.02
  0
ARC
  8
0
  10
4.853138060082
  20
2.198522522694
  30
0.02
  40
0.09375
  50
244
  51
334
  0
LINE
  8
0
  10
4.937399916762
  20
2.157425317239
  30
0.02
  11
5.792622689779
  21
3.910891854162
  31
0.02
  0
ARC
  8
0
  10
5.70836044672
  20
3.951989121324
  30
0.02
  40
0.09375
  50
334
  51
424
  0
LINE
  8
0
  10
5.749458252914
  20
4.036250978004
  30
0.02
  11
5.60902168318
  21
4.10474646969
  31
0.02
  0
ARC
  8
0
  10
4.65105552373
  20
2.000000120148
  30
0.02
  40
2.3125
  50
65.527554939013
  51
90
  0
LINE
  8
0
  10
4.65105552373
  20
4.312500240296
  30
0.02
  11
4.65105552373
  21
4.406250240296
  31
0.02
  0
ARC
  8
0
  10
4.557305583804
  20
4.406250180222
  30
0.02
  40
0.09375
  50
0
  51
90
  0
LINE
  8
0
  10
4.557305583804
  20
4.500000120148
  30
0.02
  11
3.244805583804
  21
4.500000120148
  31
0.02
  0
ARC
  8
0
  10
3.24480552373
  20
4.406250180222
  30
0.02
  40
0.09375
  50
90
  51
180
  0
LINE
  8
0
  10
3.151055583804
  20
4.406250180222
  30
0.02
  11
3.151055583804
  21
4.312500180222
  31
0.02
  0
ARC
  8
0
  10
3.151055583804
  20
2.000000120148
  30
0.02
  40
2.3125
  50
90
  51
114.472445060987
  0
LINE
  8
0
  10
2.193089432604
  20
4.104746420552
  30
0.02
  11
2.052652862869
  21
4.036250928867
  31
0.02
  0
ARC
  8
0
  10
2.093750210259
  20
3.951989121324
  30
0.02
  40
0.09375
  50
116
  51
206
  0
LINE
  8
0
  10
2.009488203394
  20
3.91089191587
  30
0.02
  11
2.864710976412
  21
2.157425378946
  31
0.02
  0
ARC
  8
0
  10
2.948973047452
  20
2.198522522694
  30
0.02
  40
0.09375
  50
206
  51
296
  0
LINE
  8
0
  10
2.990070252907
  20
2.114260666014
  30
0.02
  11
3.130506822641
  21
2.182756157699
  31
0.02
  0
ARC
  8
0
  10
3.151055583804
  20
2.140625180222
  30
0.02
  40
0.046875
  50
90
  51
116
  0
LINE
  8
0
  10
3.151055583804
  20
2.187500150185
  30
0.02
  11
3.151055583804
  21
2.093750150185
  31
0.02
  0
ARC
  8
0
  10
3.24480552373
  20
2.093750210259
  30
0.02
  40
0.09375
  50
180
  51
270
  0
LINE
  8
0
  10
3.24480552373
  20
2.000000120148
  30
0.02
  11
4.55730552373
  21
2.000000120148
  31
0.02
  0
LINE
  8
0
  10
0.000000270333
  20
1.000000120148
  30
0
  11
0.000000270333
  21
0.000000120148
  31
0
  0
LINE
  8
0
  10
0.000000270333
  20
1.000000120148
  30
0
  11
1.000000270333
  21
1.000000120148
  31
0
  0
LINE
  8
0
  10
1.000000270333
  20
0.000000120148
  30
0
  11
1.000000270333
  21
1.000000120148
  31
0
  0
LINE
  8
0
  10
0.000000270333
  20
0.000000120148
  30
0
  11
1.000000270333
  21
0.000000120148
  31
0
  0
TEXT
  8
0
  40
0.1
  72
0
  10
0.299212868758
  20
0.692913505975
  30
0
  1
1"x1"
  50
0
  0
TEXT
  8
0
  40
0.1
  72
0
  10
0.275590821514
  20
0.43307098629
  30
0
  1
scaling
  50
0
  0
TEXT
  8
0
  40
0.1
  72
0
  10
0.208661687656
  20
0.177165474479
  30
0
  1
reference
  50
0
  0
ENDSEC
  0
EOF
