  0
SECTION
  2
HEADER
  9
$ACADVER
  1
AC1009
  9
$MEASUREMENT
  70
0
  9
$INSUNITS
  70
1
  9
$DIMLFAC
  40
0.999999995904
  9
$INSBASE
  10
0.0
  20
0.0
  30
0.0
  9
$EXTMIN
  10
-0.000000030037
  20
-0.000000030037
  9
$EXTMAX
  10
23.500001640448
  20
14.25000103936
  9
$LIMMIN
  10
-0.000000030037
  20
-0.000000030037
  9
$LIMMAX
  10
23.500001640448
  20
14.25000103936
  9
$CLAYER
  8
0
  0
ENDSEC
  0
SECTION
  2
TABLES
  0
TABLE
  2
LTYPE
  70
2
  0
LTYPE
  2
CONTINUOUS
  70
65
  3
Solid line
  72
65
  73
0
  40
0
  0
LTYPE
  2
DASHED
  70
65
  3
 _ _ _ _ _ _ _ _ _ _ _ _ _ _ _ _ _ _ _ _ _ _
  72
65
  73
2
  40
1.999999991808
  49
0.999999995904
  49
-0.999999995904
  0
ENDTAB
  0
TABLE
  2
LAYER
  70
1
  0
LAYER
  2
0
  70
0
  62
7
  6
CONTINUOUS
  0
ENDTAB
  0
ENDSEC
  0
SECTION
  2
BLOCKS
  0
ENDSEC
  0
SECTION
  2
ENTITIES
  0
CIRCLE
  8
0
  10
14.25000103936
  20
8.125000187904
  30
0
  40
0.249999998976
  0
CIRCLE
  8
0
  10
2.30978224128
  20
13.687517609984
  30
0
  40
0.06424999936
  0
CIRCLE
  8
0
  10
2.312499888128
  20
2.562500067328
  30
0
  40
0.06424999936
  0
CIRCLE
  8
0
  10
2.312499888128
  20
9.7500004352
  30
0
  40
0.06424999936
  0
CIRCLE
  8
0
  10
2.312499888128
  20
6.500000464896
  30
0
  40
0.06424999936
  0
CIRCLE
  8
0
  10
2.312499888128
  20
12.703019040768
  30
0
  40
0.06424999936
  0
CIRCLE
  8
0
  10
2.312499888128
  20
11.7185183744
  30
0
  40
0.06424999936
  0
CIRCLE
  8
0
  10
2.312499888128
  20
10.734018756608
  30
0
  40
0.06424999936
  0
CIRCLE
  8
0
  10
2.312499888128
  20
3.546500038656
  30
0
  40
0.06424999936
  0
CIRCLE
  8
0
  10
2.312499888128
  20
5.515499798528
  30
0
  40
0.06424999936
  0
CIRCLE
  8
0
  10
2.312499888128
  20
4.531000180736
  30
0
  40
0.06424999936
  0
CIRCLE
  8
0
  10
6.687500009472
  20
13.687517609984
  30
0
  40
0.06424999936
  0
CIRCLE
  8
0
  10
6.690217394176
  20
12.703019040768
  30
0
  40
0.06424999936
  0
CIRCLE
  8
0
  10
6.690217394176
  20
11.718519422976
  30
0
  40
0.06424999936
  0
CIRCLE
  8
0
  10
6.690217394176
  20
10.734019805184
  30
0
  40
0.06424999936
  0
CIRCLE
  8
0
  10
6.690217394176
  20
9.7500004352
  30
0
  40
0.06424999936
  0
CIRCLE
  8
0
  10
6.690217394176
  20
6.500000989184
  30
0
  40
0.06424999936
  0
CIRCLE
  8
0
  10
6.690217394176
  20
5.515500322816
  30
0
  40
0.06424999936
  0
CIRCLE
  8
0
  10
6.690217394176
  20
4.531001229312
  30
0
  40
0.06424999936
  0
CIRCLE
  8
0
  10
6.690217394176
  20
3.546500825088
  30
0
  40
0.06424999936
  0
CIRCLE
  8
0
  10
6.690217394176
  20
2.56250085376
  30
0
  40
0.06424999936
  0
CIRCLE
  8
0
  10
23.187500826624
  20
13.1249995776
  30
0
  40
0.06424999936
  0
CIRCLE
  8
0
  10
23.187500826624
  20
3.125000011776
  30
0
  40
0.06424999936
  0
CIRCLE
  8
0
  10
23.187500826624
  20
4.124999942144
  30
0
  40
0.06424999936
  0
CIRCLE
  8
0
  10
23.187500826624
  20
5.125000134656
  30
0
  40
0.06424999936
  0
CIRCLE
  8
0
  10
23.187500826624
  20
7.12500051968
  30
0
  40
0.06424999936
  0
CIRCLE
  8
0
  10
23.187500826624
  20
6.12499980288
  30
0
  40
0.06424999936
  0
CIRCLE
  8
0
  10
23.187500826624
  20
11.125001289728
  30
0
  40
0.06424999936
  0
CIRCLE
  8
0
  10
23.187500826624
  20
10.124999524352
  30
0
  40
0.06424999936
  0
CIRCLE
  8
0
  10
23.187500826624
  20
9.124999856128
  30
0
  40
0.06424999936
  0
CIRCLE
  8
0
  10
23.187500826624
  20
8.125000187904
  30
0
  40
0.06424999936
  0
CIRCLE
  8
0
  10
23.187500826624
  20
12.124999909376
  30
0
  40
0.06424999936
  0
CIRCLE
  8
0
  10
18.812499918848
  20
4.124999942144
  30
0
  40
0.06424999936
  0
CIRCLE
  8
0
  10
18.812499918848
  20
5.125000134656
  30
0
  40
0.06424999936
  0
CIRCLE
  8
0
  10
18.812499918848
  20
7.12500051968
  30
0
  40
0.06424999936
  0
CIRCLE
  8
0
  10
18.812499918848
  20
6.12499980288
  30
0
  40
0.06424999936
  0
CIRCLE
  8
0
  10
18.812499918848
  20
11.125001289728
  30
0
  40
0.06424999936
  0
CIRCLE
  8
0
  10
18.812499918848
  20
10.124999524352
  30
0
  40
0.06424999936
  0
CIRCLE
  8
0
  10
18.812499918848
  20
9.124999856128
  30
0
  40
0.06424999936
  0
CIRCLE
  8
0
  10
18.812499918848
  20
8.125000187904
  30
0
  40
0.06424999936
  0
CIRCLE
  8
0
  10
18.812499918848
  20
12.124999909376
  30
0
  40
0.06424999936
  0
CIRCLE
  8
0
  10
18.812499918848
  20
3.125000011776
  30
0
  40
0.06424999936
  0
CIRCLE
  8
0
  10
18.812499918848
  20
13.1249995776
  30
0
  40
0.06424999936
  0
LINE
  8
0
  10
3.874999819778
  20
1.999999969963
  30
0.025
  11
23.440367518142
  21
2.747721028499
  31
0.025
  0
ARC
  8
0
  10
23.437999815453
  20
2.809675922544
  30
0.025
  40
0.062
  50
272.188582560405
  51
359.999999999999
  0
LINE
  8
0
  10
23.500000961184
  20
2.809675922544
  30
0.025
  11
23.500000961184
  21
13.440324257745
  31
0.025
  0
ARC
  8
0
  10
23.437999815453
  20
13.440324678196
  30
0.025
  40
0.062
  50
0
  51
87.811417439595
  0
LINE
  8
0
  10
23.440366729977
  20
13.502278966228
  30
0.025
  11
3.874999031612
  21
14.250000024764
  31
0.025
  0
LINE
  8
0
  10
3.874999819778
  20
14.250000480592
  30
0.025
  11
2.055830589199
  21
14.068083557534
  31
0.025
  0
ARC
  8
0
  10
2.061999914214
  20
14.00639090951
  30
0.025
  40
0.062
  50
95.7105931375
  51
180
  0
LINE
  8
0
  10
1.999999969963
  20
14.00639090951
  30
0.025
  11
1.999999969963
  21
9.437000138361
  31
0.025
  0
ARC
  8
0
  10
2.061999914214
  20
9.436999944251
  30
0.025
  40
0.062
  50
180
  51
270
  0
LINE
  8
0
  10
2.061999914214
  20
9.375
  30
0.025
  11
6.437499914214
  21
9.375
  31
0.025
  0
ARC
  8
0
  10
6.437499879852
  20
9.312500240296
  30
0.025
  40
0.0625
  50
0
  51
90
  0
LINE
  8
0
  10
6.499999639556
  20
9.312500240296
  30
0.025
  11
6.499999639556
  21
6.937500240296
  31
0.025
  0
ARC
  8
0
  10
6.437499879852
  20
6.937499759704
  30
0.025
  40
0.0625
  50
-90
  51
0
  0
LINE
  8
0
  10
6.437499879852
  20
6.875
  30
0.025
  11
2.061999879852
  21
6.875
  31
0.025
  0
ARC
  8
0
  10
2.061999914214
  20
6.813000055749
  30
0.025
  40
0.062
  50
90
  51
180
  0
LINE
  8
0
  10
1.999999969963
  20
6.813000055749
  30
0.025
  11
1.999999969963
  21
2.2436092846
  31
0.025
  0
ARC
  8
0
  10
2.061999914214
  20
2.243609240675
  30
0.025
  40
0.062
  50
180
  51
264.2894068625
  0
LINE
  8
0
  10
2.055830617589
  20
2.181916875163
  30
0.025
  11
3.874999848169
  21
1.999999952105
  31
0.025
  0
LINE
  8
0
  10
-0.000000030037
  20
0.999999969963
  30
0
  11
-0.000000030037
  21
-0.000000030037
  31
0
  0
LINE
  8
0
  10
-0.000000030037
  20
0.999999969963
  30
0
  11
0.999999969963
  21
0.999999969963
  31
0
  0
LINE
  8
0
  10
0.999999969963
  20
-0.000000030037
  30
0
  11
0.999999969963
  21
0.999999969963
  31
0
  0
LINE
  8
0
  10
-0.000000030037
  20
-0.000000030037
  30
0
  11
0.999999969963
  21
-0.000000030037
  31
0
  0
TEXT
  8
0
  40
0.1
  72
0
  10
0.299212568388
  20
0.69291335579
  30
0
  1
1"x1"
  50
0
  0
TEXT
  8
0
  40
0.1
  72
0
  10
0.275590521144
  20
0.433070836105
  30
0
  1
scaling
  50
0
  0
TEXT
  8
0
  40
0.1
  72
0
  10
0.208661387286
  20
0.177165324294
  30
0
  1
reference
  50
0
  0
ENDSEC
  0
EOF
