  0
SECTION
  2
HEADER
  9
$ACADVER
  1
AC1009
  9
$MEASUREMENT
  70
0
  9
$INSUNITS
  70
1
  9
$DIMLFAC
  40
0.999999995904
  9
$INSBASE
  10
0.0
  20
0.0
  30
0.0
  9
$EXTMIN
  10
-0.000000180222
  20
0.000000120148
  9
$EXTMAX
  10
6.250000023552
  20
9.483495407616
  9
$LIMMIN
  10
-0.000000180222
  20
0.000000120148
  9
$LIMMAX
  10
6.250000023552
  20
9.483495407616
  9
$CLAYER
  8
0
  0
ENDSEC
  0
SECTION
  2
TABLES
  0
TABLE
  2
LTYPE
  70
2
  0
LTYPE
  2
CONTINUOUS
  70
65
  3
Solid line
  72
65
  73
0
  40
0
  0
LTYPE
  2
DASHED
  70
65
  3
 _ _ _ _ _ _ _ _ _ _ _ _ _ _ _ _ _ _ _ _ _ _
  72
65
  73
2
  40
1.999999991808
  49
0.999999995904
  49
-0.999999995904
  0
ENDTAB
  0
TABLE
  2
LAYER
  70
1
  0
LAYER
  2
0
  70
0
  62
7
  6
CONTINUOUS
  0
ENDTAB
  0
ENDSEC
  0
SECTION
  2
BLOCKS
  0
ENDSEC
  0
SECTION
  2
ENTITIES
  0
CIRCLE
  8
0
  10
2.250000039936
  20
7.890625101824
  30
0
  40
0.093750001664
  0
CIRCLE
  8
0
  10
4.328125104128
  20
5.812500037632
  30
0
  40
0.093750001664
  0
CIRCLE
  8
0
  10
2.250000039936
  20
3.73437497344
  30
0
  40
0.093750001664
  0
LINE
  8
0
  10
1.999999969963
  20
2.000000120148
  30
0.036
  11
4.874999969963
  21
2.000000120148
  31
0.036
  0
LINE
  8
0
  10
4.874999879852
  20
2.000000120148
  30
0.036
  11
4.874999879852
  21
3.312500120148
  31
0.036
  0
ARC
  8
0
  10
4.874999879852
  20
3.375000240296
  30
0.036
  40
0.0625
  50
0
  51
270
  0
LINE
  8
0
  10
4.937499939926
  20
3.375000240296
  30
0.036
  11
5.874999939926
  21
3.375000240296
  31
0.036
  0
LINE
  8
0
  10
5.875000240296
  20
3.375000240296
  30
0.036
  11
5.875000240296
  21
3.750000240296
  31
0.036
  0
ARC
  8
0
  10
6.281249879852
  20
3.75000030037
  30
0.036
  40
0.40625
  50
94.41172578577
  51
180
  0
LINE
  8
0
  10
6.25
  20
4.155046357883
  30
0.036
  11
6.25
  21
7.000000064233
  31
0.036
  0
LINE
  8
0
  10
6.25
  20
7.000000120148
  30
0.036
  11
5.875
  21
7.375000120148
  31
0.036
  0
LINE
  8
0
  10
5.875000240296
  20
7.374999879852
  30
0.036
  11
4.937500240296
  21
7.374999879852
  31
0.036
  0
ARC
  8
0
  10
4.874999879852
  20
7.374999879852
  30
0.036
  40
0.0625
  50
-270
  51
0
  0
LINE
  8
0
  10
4.874999879852
  20
7.437500240296
  30
0.036
  11
4.874999879852
  21
7.937500240296
  31
0.036
  0
ARC
  8
0
  10
4.874999879852
  20
7.999999879852
  30
0.036
  40
0.0625
  50
80.169999999203
  51
270
  0
LINE
  8
0
  10
4.885670218881
  20
8.061582309993
  30
0.036
  11
4.960362596334
  21
8.492659215835
  31
0.036
  0
LINE
  8
0
  10
4.960362892451
  20
8.492659320981
  30
0.036
  11
4.553066288579
  21
9.070681359034
  31
0.036
  0
LINE
  8
0
  10
4.553066163551
  20
9.07068147434
  30
0.036
  11
2.170565687377
  21
9.483495574187
  31
0.036
  0
LINE
  8
0
  10
2.170565597654
  20
9.483495396892
  30
0.036
  11
2.010821822379
  21
8.561555906936
  31
0.036
  0
ARC
  8
0
  10
1.999999969963
  20
8.500000360444
  30
0.036
  40
0.0625
  50
-90
  51
80.028994831433
  0
LINE
  8
0
  10
1.999999969963
  20
8.4375
  30
0.036
  11
1.999999969963
  21
7.670758593415
  31
0.036
  0
ARC
  8
0
  10
2.250000060074
  20
5.812499879852
  30
0.036
  40
1.875
  50
-97.662255660766
  51
97.662255660766
  0
LINE
  8
0
  10
1.999999969963
  20
3.95424159493
  30
0.036
  11
1.999999969963
  21
3.437500188345
  31
0.036
  0
ARC
  8
0
  10
1.999999969963
  20
3.375000240296
  30
0.036
  40
0.0625
  50
-90
  51
90
  0
LINE
  8
0
  10
1.999999969963
  20
3.312500180222
  30
0.036
  11
1.999999969963
  21
2.000000180222
  31
0.036
  0
LINE
  8
0
  10
-0.000000180222
  20
1.000000120148
  30
0
  11
-0.000000180222
  21
0.000000120148
  31
0
  0
LINE
  8
0
  10
-0.000000180222
  20
1.000000120148
  30
0
  11
0.999999819778
  21
1.000000120148
  31
0
  0
LINE
  8
0
  10
0.999999819778
  20
0.000000120148
  30
0
  11
0.999999819778
  21
1.000000120148
  31
0
  0
LINE
  8
0
  10
-0.000000180222
  20
0.000000120148
  30
0
  11
0.999999819778
  21
0.000000120148
  31
0
  0
TEXT
  8
0
  40
0.1
  72
0
  10
0.299212418203
  20
0.692913505975
  30
0
  1
1"x1"
  50
0
  0
TEXT
  8
0
  40
0.1
  72
0
  10
0.275590370959
  20
0.43307098629
  30
0
  1
scaling
  50
0
  0
TEXT
  8
0
  40
0.1
  72
0
  10
0.208661237101
  20
0.177165474479
  30
0
  1
reference
  50
0
  0
ENDSEC
  0
EOF
