  0
SECTION
  2
HEADER
  9
$ACADVER
  1
AC1009
  9
$MEASUREMENT
  70
0
  9
$INSUNITS
  70
1
  9
$DIMLFAC
  40
0.999999995904
  9
$INSBASE
  10
0.0
  20
0.0
  30
0.0
  9
$EXTMIN
  10
1.99999946752
  20
1.999999991808
  9
$EXTMAX
  10
18.000000319488
  20
14.25000103936
  9
$LIMMIN
  10
1.99999946752
  20
1.999999991808
  9
$LIMMAX
  10
18.000000319488
  20
14.25000103936
  9
$CLAYER
  8
0
  0
ENDSEC
  0
SECTION
  2
TABLES
  0
TABLE
  2
LTYPE
  70
2
  0
LTYPE
  2
CONTINUOUS
  70
65
  3
Solid line
  72
65
  73
0
  40
0
  0
LTYPE
  2
DASHED
  70
65
  3
 _ _ _ _ _ _ _ _ _ _ _ _ _ _ _ _ _ _ _ _ _ _
  72
65
  73
2
  40
1.999999991808
  49
0.999999995904
  49
-0.999999995904
  0
ENDTAB
  0
TABLE
  2
LAYER
  70
1
  0
LAYER
  2
0
  70
0
  62
7
  6
CONTINUOUS
  0
ENDTAB
  0
ENDSEC
  0
SECTION
  2
BLOCKS
  0
ENDSEC
  0
SECTION
  2
ENTITIES
  0
LINE
  8
0
  10
4.499999555584
  20
1.999999991808
  30
0
  11
9.999998779392
  21
1.999999991808
  31
0
  0
LINE
  8
0
  10
2.2461284352
  20
5.581695352832
  30
0
  11
2.234907885568
  21
5.587855736832
  31
0
  0
ARC
  8
0
  10
4.499999555584
  20
4.500000079872
  30
0
  40
2.499999956992
  50
154.362349355008
  51
269.999998500864
  0
ARC
  8
0
  10
9.999998779392
  20
11.750000820224
  30
0
  40
2.499999956992
  50
89.999982723072
  51
130.98844946432
  0
ARC
  8
0
  10
22.762219372544
  20
-3.649677033472
  30
0
  40
22.499999875072
  50
129.500335570944
  51
155.773732651008
  0
LINE
  8
0
  10
8.434838142976
  20
13.703450722304
  30
0
  11
8.437378842624
  21
13.701466816512
  31
0
  0
CIRCLE
  8
0
  10
8.999999111168
  20
2.374999998464
  30
0
  40
0.06424999936
  0
CIRCLE
  8
0
  10
7.000000823296
  20
2.374999998464
  30
0
  40
0.06424999936
  0
CIRCLE
  8
0
  10
5.000001486848
  20
2.374999998464
  30
0
  40
0.06424999936
  0
CIRCLE
  8
0
  10
4.199758954496
  20
4.212019429376
  30
0
  40
0.06424999936
  0
CIRCLE
  8
0
  10
8.76226019328
  20
12.114500517888
  30
0
  40
0.06424999936
  0
CIRCLE
  8
0
  10
8.00184336384
  20
10.797419855872
  30
0
  40
0.06424999936
  0
CIRCLE
  8
0
  10
7.2414265344
  20
9.480340242432
  30
0
  40
0.06424999936
  0
CIRCLE
  8
0
  10
6.48100970496
  20
8.163259580416
  30
0
  40
0.06424999936
  0
CIRCLE
  8
0
  10
5.720592351232
  20
6.8461789184
  30
0
  40
0.06424999936
  0
CIRCLE
  8
0
  10
4.960176570368
  20
5.529098780672
  30
0
  40
0.06424999936
  0
LINE
  8
0
  10
15.500001148928
  20
1.999999991808
  30
0
  11
10.000000876544
  21
1.999999991808
  31
0
  0
LINE
  8
0
  10
17.753872269312
  20
5.581695352832
  30
0
  11
17.765092032512
  21
5.587855736832
  31
0
  0
ARC
  8
0
  10
15.500001148928
  20
4.500000079872
  30
0
  40
2.499999956992
  50
-89.999999500288
  51
25.63764125696
  0
ARC
  8
0
  10
10.000000876544
  20
11.750000820224
  30
0
  40
2.499999956992
  50
49.011545341952
  51
89.999999500288
  0
ARC
  8
0
  10
-2.762216833024
  20
-3.649676509184
  30
0
  40
22.499999875072
  50
24.226281029632
  51
50.499667623936
  0
LINE
  8
0
  10
11.565163085824
  20
13.703450722304
  30
0
  11
11.562623434752
  21
13.701466816512
  31
0
  0
CIRCLE
  8
0
  10
11.000000544768
  20
2.37499973632
  30
0
  40
0.06424999936
  0
CIRCLE
  8
0
  10
13.000000929792
  20
2.37499973632
  30
0
  40
0.06424999936
  0
CIRCLE
  8
0
  10
14.999999217664
  20
2.37499973632
  30
0
  40
0.06424999936
  0
CIRCLE
  8
0
  10
15.800240963584
  20
4.212019429376
  30
0
  40
0.06424999936
  0
CIRCLE
  8
0
  10
11.237739986944
  20
12.114500517888
  30
0
  40
0.06424999936
  0
CIRCLE
  8
0
  10
11.998156816384
  20
10.797419855872
  30
0
  40
0.06424999936
  0
CIRCLE
  8
0
  10
12.758573645824
  20
9.480340242432
  30
0
  40
0.06424999936
  0
CIRCLE
  8
0
  10
13.51899152384
  20
8.163259580416
  30
0
  40
0.06424999936
  0
CIRCLE
  8
0
  10
14.279407304704
  20
6.8461789184
  30
0
  40
0.06424999936
  0
CIRCLE
  8
0
  10
15.039824134144
  20
5.529098780672
  30
0
  40
0.06424999936
  0
ENDSEC
  0
EOF
