  0
SECTION
  2
HEADER
  9
$ACADVER
  1
AC1009
  9
$MEASUREMENT
  70
0
  9
$INSUNITS
  70
1
  9
$DIMLFAC
  40
0.999999995904
  9
$INSBASE
  10
0.0
  20
0.0
  30
0.0
  9
$EXTMIN
  10
-0.000000480592
  20
0.000000270333
  9
$EXTMAX
  10
29.125001609216
  20
13.806971387904
  9
$LIMMIN
  10
-0.000000480592
  20
0.000000270333
  9
$LIMMAX
  10
29.125001609216
  20
13.806971387904
  9
$CLAYER
  8
0
  0
ENDSEC
  0
SECTION
  2
TABLES
  0
TABLE
  2
LTYPE
  70
2
  0
LTYPE
  2
CONTINUOUS
  70
65
  3
Solid line
  72
65
  73
0
  40
0
  0
LTYPE
  2
DASHED
  70
65
  3
 _ _ _ _ _ _ _ _ _ _ _ _ _ _ _ _ _ _ _ _ _ _
  72
65
  73
2
  40
1.999999991808
  49
0.999999995904
  49
-0.999999995904
  0
ENDTAB
  0
TABLE
  2
LAYER
  70
1
  0
LAYER
  2
0
  70
0
  62
7
  6
CONTINUOUS
  0
ENDTAB
  0
ENDSEC
  0
SECTION
  2
BLOCKS
  0
ENDSEC
  0
SECTION
  2
ENTITIES
  0
CIRCLE
  8
0
  10
5.567788552112
  20
2.531250180222
  30
0
  40
0.109375
  0
CIRCLE
  8
0
  10
15.567787951372
  20
2.500000150185
  30
0
  40
0.109375
  0
CIRCLE
  8
0
  10
25.567787951372
  20
2.531250180222
  30
0
  40
0.109375
  0
CIRCLE
  8
0
  10
15.562559112789
  20
5.9375
  30
0
  40
1.125
  0
CIRCLE
  8
0
  10
23.562559593381
  20
5.9375
  30
0
  40
1.5625
  0
CIRCLE
  8
0
  10
19.562559353085
  20
5.9375
  30
0
  40
1.5625
  0
CIRCLE
  8
0
  10
11.562560073973
  20
5.9375
  30
0
  40
1.5625
  0
CIRCLE
  8
0
  10
15.567787951372
  20
10.687499759704
  30
0
  40
1.125
  0
CIRCLE
  8
0
  10
19.567788191668
  20
10.687499759704
  30
0
  40
1.5625
  0
CIRCLE
  8
0
  10
15.562559112789
  20
8.059135497086
  30
0
  40
0.21875
  0
CIRCLE
  8
0
  10
8.562559593381
  20
8.937500480592
  30
0
  40
0.4375
  0
CIRCLE
  8
0
  10
24.562560554564
  20
10.062500360444
  30
0
  40
0.3125
  0
CIRCLE
  8
0
  10
27.187560073973
  20
6.062500120148
  30
0
  40
0.1875
  0
CIRCLE
  8
0
  10
26.781308632197
  20
7.000000120148
  30
0
  40
0.1875
  0
CIRCLE
  8
0
  10
14.634482316145
  20
5.009422602616
  30
0
  40
0.078125
  0
CIRCLE
  8
0
  10
14.634482316145
  20
6.865577998124
  30
0
  40
0.078125
  0
CIRCLE
  8
0
  10
16.490637110913
  20
6.865577998124
  30
0
  40
0.078125
  0
CIRCLE
  8
0
  10
16.490637110913
  20
5.009422602616
  30
0
  40
0.078125
  0
CIRCLE
  8
0
  10
14.639711154727
  20
11.615577757828
  30
0
  40
0.078125
  0
CIRCLE
  8
0
  10
14.639711154727
  20
9.75942236232
  30
0
  40
0.078125
  0
CIRCLE
  8
0
  10
16.495865949496
  20
9.75942236232
  30
0
  40
0.078125
  0
CIRCLE
  8
0
  10
16.495865949496
  20
11.615577757828
  30
0
  40
0.078125
  0
CIRCLE
  8
0
  10
12.805225041908
  20
9.450063630352
  30
0
  40
0.078125
  0
CIRCLE
  8
0
  10
12.805225041908
  20
11.924937090536
  30
0
  40
0.078125
  0
CIRCLE
  8
0
  10
10.330351581724
  20
11.924937090536
  30
0
  40
0.078125
  0
CIRCLE
  8
0
  10
20.80522432102
  20
9.450063630352
  30
0
  40
0.078125
  0
CIRCLE
  8
0
  10
18.330350860836
  20
9.450063630352
  30
0
  40
0.078125
  0
CIRCLE
  8
0
  10
20.80522432102
  20
11.924937090536
  30
0
  40
0.078125
  0
CIRCLE
  8
0
  10
18.330350860836
  20
11.924937090536
  30
0
  40
0.078125
  0
CIRCLE
  8
0
  10
24.799996924213
  20
4.700063269908
  30
0
  40
0.078125
  0
CIRCLE
  8
0
  10
22.325122262549
  20
4.700063269908
  30
0
  40
0.078125
  0
CIRCLE
  8
0
  10
24.799996924213
  20
7.174937330832
  30
0
  40
0.078125
  0
CIRCLE
  8
0
  10
22.325122262549
  20
7.174937330832
  30
0
  40
0.078125
  0
CIRCLE
  8
0
  10
20.799995482437
  20
4.700063269908
  30
0
  40
0.078125
  0
CIRCLE
  8
0
  10
18.325122022253
  20
4.700063269908
  30
0
  40
0.078125
  0
CIRCLE
  8
0
  10
20.799995482437
  20
7.174937330832
  30
0
  40
0.078125
  0
CIRCLE
  8
0
  10
18.325122022253
  20
7.174937330832
  30
0
  40
0.078125
  0
CIRCLE
  8
0
  10
12.799996203325
  20
4.700063269908
  30
0
  40
0.078125
  0
CIRCLE
  8
0
  10
10.325122743141
  20
4.700063269908
  30
0
  40
0.078125
  0
CIRCLE
  8
0
  10
12.799996203325
  20
7.174937330832
  30
0
  40
0.078125
  0
CIRCLE
  8
0
  10
10.325122743141
  20
7.174937330832
  30
0
  40
0.078125
  0
CIRCLE
  8
0
  10
8.799996563769
  20
4.700063269908
  30
0
  40
0.078125
  0
CIRCLE
  8
0
  10
8.799996563769
  20
7.174937330832
  30
0
  40
0.078125
  0
CIRCLE
  8
0
  10
6.325122502845
  20
7.174937330832
  30
0
  40
0.078125
  0
CIRCLE
  8
0
  10
15.187559353085
  20
7.684135136642
  30
0
  40
0.078125
  0
CIRCLE
  8
0
  10
15.187559353085
  20
8.43413525679
  30
0
  40
0.078125
  0
CIRCLE
  8
0
  10
15.937560073973
  20
8.43413525679
  30
0
  40
0.078125
  0
CIRCLE
  8
0
  10
15.937560073973
  20
7.684135136642
  30
0
  40
0.078125
  0
LINE
  8
0
  10
6.059957789624
  20
4.611674932044
  30
0
  11
6.23673448492
  21
4.434898236748
  31
0
  0
ARC
  8
0
  10
6.325122502845
  20
4.523286594181
  30
0
  40
0.125
  50
225
  51
315
  0
LINE
  8
0
  10
6.413511141079
  20
4.434898256317
  30
0
  11
6.64871583289
  21
4.670102948128
  31
0
  0
ARC
  8
0
  10
7.562559232937
  20
5.9375
  30
0
  40
1.5625
  50
234.206896221346
  51
575.793103778654
  0
LINE
  8
0
  10
6.295162411187
  20
5.023656529704
  30
0
  11
6.059957719375
  21
4.788451837893
  31
0
  0
ARC
  8
0
  10
6.148345827118
  20
4.700063269908
  30
0
  40
0.125
  50
135
  51
225
  0
LINE
  8
0
  10
10.065186267763
  20
9.361674992118
  30
0
  11
10.241962963059
  21
9.184898296822
  31
0
  0
ARC
  8
0
  10
10.330351581724
  20
9.273286954624
  30
0
  40
0.125
  50
225
  51
315
  0
LINE
  8
0
  10
10.418739619218
  20
9.184898316391
  30
0
  11
10.653944311029
  21
9.420103008202
  31
0
  0
ARC
  8
0
  10
11.567788912555
  20
10.687499759704
  30
0
  40
1.5625
  50
234.206896221346
  51
575.793103778654
  0
LINE
  8
0
  10
10.300391490065
  20
9.773656289409
  30
0
  11
10.065186798254
  21
9.538451597597
  31
0
  0
ARC
  8
0
  10
10.153574305257
  20
9.450063630352
  30
0
  40
0.125
  50
135
  51
225
  0
LINE
  8
0
  10
3.875059593381
  20
2.000000270333
  30
0.05
  11
27.260517263445
  21
2.000000270333
  31
0.05
  0
ARC
  8
0
  10
27.260516309363
  20
2.125000240296
  30
0.05
  40
0.125
  50
270
  51
360
  0
LINE
  8
0
  10
27.38551823173
  20
2.125000240296
  30
0.05
  11
27.38551823173
  21
3.062500240296
  31
0.05
  0
LINE
  8
0
  10
27.38551823173
  20
3.062500240296
  30
0.05
  11
27.375060561666
  21
3.062500240296
  31
0.05
  0
LINE
  8
0
  10
27.375060554564
  20
3.062500240296
  30
0.05
  11
27.375060554564
  21
3.562500240296
  31
0.05
  0
ARC
  8
0
  10
27.875058632197
  20
3.562500120148
  30
0.05
  40
0.5
  50
90
  51
180
  0
LINE
  8
0
  10
27.875058632197
  20
4.06250030037
  30
0.05
  11
29.124991387749
  21
4.06250030037
  31
0.05
  0
ARC
  8
0
  10
19.437071813349
  20
4.088521238558
  30
0.05
  40
9.687956234139
  50
359.84610763776
  51
363.356361152342
  0
ARC
  8
0
  10
20.333742523918
  20
4.183346772459
  30
0.05
  40
8.787372680774
  50
3.081425612471
  51
18.95814827062
  0
ARC
  8
0
  10
20.462103319455
  20
4.221604943661
  30
0.05
  40
8.653547214936
  50
18.994687486884
  51
34.547530681619
  0
ARC
  8
0
  10
20.448143904159
  20
4.210969174003
  30
0.05
  40
8.671076448166
  50
34.553107406766
  51
50.279278953465
  0
ARC
  8
0
  10
20.4770620535
  20
4.245596206133
  30
0.05
  40
8.625962398256
  50
50.280040566776
  51
66.130377269233
  0
ARC
  8
0
  10
20.495797355773
  20
4.282252190523
  30
0.05
  40
8.584860591
  50
66.145725930123
  51
67.881999400885
  0
ARC
  8
0
  10
15.513251201924
  20
-8.225262029633
  30
0.05
  40
22.048154045167
  50
68.124686155956
  51
83.337968640287
  0
ARC
  8
0
  10
15.76636946943
  20
-6.260881048854
  30
0.05
  40
20.067685943327
  50
83.405110617288
  51
90.58191336093
  0
ARC
  8
0
  10
15.516076633246
  20
-8.177246144076
  30
0.05
  40
21.983065464632
  50
89.878848671021
  51
105.122234636201
  0
ARC
  8
0
  10
15.070591606613
  20
-6.456154069356
  30
0.05
  40
20.205363404416
  50
105.175938065813
  51
112.320081087254
  0
ARC
  8
0
  10
10.481297188382
  20
4.46163353799
  30
0.05
  40
8.363235757422
  50
111.641226983284
  51
127.154944796701
  0
ARC
  8
0
  10
10.551941339093
  20
4.379739509395
  30
0.05
  40
8.471175608456
  50
127.201221476885
  51
142.998081143215
  0
ARC
  8
0
  10
10.810336302358
  20
4.186519994168
  30
0.05
  40
8.793821451131
  50
143.005931034412
  51
158.590161429232
  0
ARC
  8
0
  10
11.026810905671
  20
4.099630982235
  30
0.05
  40
9.027075691761
  50
158.57828022699
  51
174.364327168369
  0
ARC
  8
0
  10
11.47635701062
  20
4.058727909775
  30
0.05
  40
9.478466303023
  50
174.385128623304
  51
176.388933401758
  0
ARC
  8
0
  10
11.874354269447
  20
4.081128270752
  30
0.05
  40
9.874376421942
  50
176.664103986607
  51
179.878080138705
  0
LINE
  8
0
  10
2.000000202942
  20
4.102139970138
  30
0.05
  11
2.000126696556
  21
4.062500354922
  31
0.05
  0
LINE
  8
0
  10
2.000126726045
  20
4.06250030037
  30
0.05
  11
3.250059481597
  21
4.06250030037
  31
0.05
  0
ARC
  8
0
  10
3.250059593381
  20
3.562500120148
  30
0.05
  40
0.5
  50
0
  51
90
  0
LINE
  8
0
  10
3.750059473233
  20
3.562500120148
  30
0.05
  11
3.750059473233
  21
2.125000120148
  31
0.05
  0
ARC
  8
0
  10
3.875059593381
  20
2.125000240296
  30
0.05
  40
0.125
  50
180
  51
270
  0
LINE
  8
0
  10
-0.000000480592
  20
1.000000270333
  30
0
  11
-0.000000480592
  21
0.000000270333
  31
0
  0
LINE
  8
0
  10
-0.000000480592
  20
1.000000270333
  30
0
  11
0.999999519408
  21
1.000000270333
  31
0
  0
LINE
  8
0
  10
0.999999519408
  20
0.000000270333
  30
0
  11
0.999999519408
  21
1.000000270333
  31
0
  0
LINE
  8
0
  10
-0.000000480592
  20
0.000000270333
  30
0
  11
0.999999519408
  21
0.000000270333
  31
0
  0
TEXT
  8
0
  40
0.1
  72
0
  10
0.299212117833
  20
0.69291365616
  30
0
  1
1"x1"
  50
0
  0
TEXT
  8
0
  40
0.1
  72
0
  10
0.275590070589
  20
0.433071136475
  30
0
  1
scaling
  50
0
  0
TEXT
  8
0
  40
0.1
  72
0
  10
0.208660936731
  20
0.177165624664
  30
0
  1
reference
  50
0
  0
ENDSEC
  0
EOF
