  0
SECTION
  2
HEADER
  9
$ACADVER
  1
AC1009
  9
$MEASUREMENT
  70
0
  9
$INSUNITS
  70
1
  9
$DIMLFAC
  40
0.999999995904
  9
$INSBASE
  10
0.0
  20
0.0
  30
0.0
  9
$EXTMIN
  10
-0.000000480592
  20
-0.000000180222
  9
$EXTMAX
  10
22.124997640192
  20
18.000000319488
  9
$LIMMIN
  10
-0.000000480592
  20
-0.000000180222
  9
$LIMMAX
  10
22.124997640192
  20
18.000000319488
  9
$CLAYER
  8
0
  0
ENDSEC
  0
SECTION
  2
TABLES
  0
TABLE
  2
LTYPE
  70
2
  0
LTYPE
  2
CONTINUOUS
  70
65
  3
Solid line
  72
65
  73
0
  40
0
  0
LTYPE
  2
DASHED
  70
65
  3
 _ _ _ _ _ _ _ _ _ _ _ _ _ _ _ _ _ _ _ _ _ _
  72
65
  73
2
  40
1.999999991808
  49
0.999999995904
  49
-0.999999995904
  0
ENDTAB
  0
TABLE
  2
LAYER
  70
1
  0
LAYER
  2
0
  70
0
  62
7
  6
CONTINUOUS
  0
ENDTAB
  0
ENDSEC
  0
SECTION
  2
BLOCKS
  0
ENDSEC
  0
SECTION
  2
ENTITIES
  0
CIRCLE
  8
0
  10
6.43749904384
  20
2.937499680768
  30
0
  40
0.187500003328
  0
CIRCLE
  8
0
  10
17.56249980928
  20
2.937499680768
  30
0
  40
0.187500003328
  0
CIRCLE
  8
0
  10
3.124999225344
  20
14.1250002944
  30
0
  40
0.187500003328
  0
CIRCLE
  8
0
  10
20.999997227008
  20
14.1250002944
  30
0
  40
0.187500003328
  0
LINE
  8
0
  10
2.374999429297
  20
1.999999819778
  30
0.25
  11
21.749999429297
  21
1.999999819778
  31
0.25
  0
ARC
  8
0
  10
22.124999038816
  20
1.999999819778
  30
0.25
  40
0.375
  50
90
  51
180
  0
LINE
  8
0
  10
22.124999038816
  20
2.374999879852
  30
0.25
  11
22.124999038816
  21
16.124999879852
  31
0.25
  0
ARC
  8
0
  10
21.999999519408
  20
16.124999279112
  30
0.25
  40
0.125
  50
0
  51
90
  0
LINE
  8
0
  10
21.999999519408
  20
16.25
  30
0.25
  11
18.749999519408
  21
16.25
  31
0.25
  0
ARC
  8
0
  10
18.75
  20
16.374999519408
  30
0.25
  40
0.125
  50
180
  51
270
  0
LINE
  8
0
  10
18.624999279112
  20
16.374999519408
  30
0.25
  11
18.624999279112
  21
16.749999519408
  31
0.25
  0
ARC
  8
0
  10
18.499999759704
  20
16.749999279112
  30
0.25
  40
0.125
  50
0
  51
90
  0
LINE
  8
0
  10
18.499999759704
  20
16.875
  30
0.25
  11
17.749999759704
  21
16.875
  31
0.25
  0
ARC
  8
0
  10
17.749999038816
  20
16.999999519408
  30
0.25
  40
0.125
  50
180
  51
270
  0
LINE
  8
0
  10
17.624999519408
  20
16.999999519408
  30
0.25
  11
17.624999519408
  21
17.874999519408
  31
0.25
  0
ARC
  8
0
  10
17.5
  20
17.874999759704
  30
0.25
  40
0.125
  50
0
  51
90
  0
LINE
  8
0
  10
17.5
  20
17.999999279112
  30
0.25
  11
6.625
  21
17.999999279112
  31
0.25
  0
ARC
  8
0
  10
6.624999158964
  20
17.874999759704
  30
0.25
  40
0.125
  50
90
  51
180
  0
LINE
  8
0
  10
6.499999639556
  20
17.874999759704
  30
0.25
  11
6.499999639556
  21
16.999999759704
  31
0.25
  0
ARC
  8
0
  10
6.374999519408
  20
16.999999519408
  30
0.25
  40
0.125
  50
-90
  51
0
  0
LINE
  8
0
  10
6.374999519408
  20
16.875
  30
0.25
  11
5.624999519408
  21
16.875
  31
0.25
  0
ARC
  8
0
  10
5.62499939926
  20
16.749999279112
  30
0.25
  40
0.125
  50
90
  51
180
  0
LINE
  8
0
  10
5.499999279112
  20
16.749999279112
  30
0.25
  11
5.499999279112
  21
16.374999279112
  31
0.25
  0
ARC
  8
0
  10
5.374999158964
  20
16.374999519408
  30
0.25
  40
0.125
  50
-90
  51
0
  0
LINE
  8
0
  10
5.374999158964
  20
16.25
  30
0.25
  11
2.124999158964
  21
16.25
  31
0.25
  0
ARC
  8
0
  10
2.124999489371
  20
16.124999279112
  30
0.25
  40
0.125
  50
90
  51
180
  0
LINE
  8
0
  10
1.999999519408
  20
16.124999279112
  30
0.25
  11
1.999999519408
  21
2.374999279112
  31
0.25
  0
ARC
  8
0
  10
1.999999519408
  20
1.999999819778
  30
0.25
  40
0.375
  50
0
  51
90
  0
LINE
  8
0
  10
-0.000000480592
  20
0.999999819778
  30
0
  11
-0.000000480592
  21
-0.000000180222
  31
0
  0
LINE
  8
0
  10
-0.000000480592
  20
0.999999819778
  30
0
  11
0.999999519408
  21
0.999999819778
  31
0
  0
LINE
  8
0
  10
0.999999519408
  20
-0.000000180222
  30
0
  11
0.999999519408
  21
0.999999819778
  31
0
  0
LINE
  8
0
  10
-0.000000480592
  20
-0.000000180222
  30
0
  11
0.999999519408
  21
-0.000000180222
  31
0
  0
TEXT
  8
0
  40
0.1
  72
0
  10
0.299212117833
  20
0.692913205605
  30
0
  1
1"x1"
  50
0
  0
TEXT
  8
0
  40
0.1
  72
0
  10
0.275590070589
  20
0.43307068592
  30
0
  1
scaling
  50
0
  0
TEXT
  8
0
  40
0.1
  72
0
  10
0.208660936731
  20
0.177165174109
  30
0
  1
reference
  50
0
  0
ENDSEC
  0
EOF
