  0
SECTION
  2
HEADER
  9
$ACADVER
  1
AC1009
  9
$MEASUREMENT
  70
0
  9
$INSUNITS
  70
1
  9
$DIMLFAC
  40
0.999999995904
  9
$INSBASE
  10
0.0
  20
0.0
  30
0.0
  9
$EXTMIN
  10
0.000000270333
  20
0.000000120148
  9
$EXTMAX
  10
21.605872828416
  20
14.25000103936
  9
$LIMMIN
  10
0.000000270333
  20
0.000000120148
  9
$LIMMAX
  10
21.605872828416
  20
14.25000103936
  9
$CLAYER
  8
0
  0
ENDSEC
  0
SECTION
  2
TABLES
  0
TABLE
  2
LTYPE
  70
2
  0
LTYPE
  2
CONTINUOUS
  70
65
  3
Solid line
  72
65
  73
0
  40
0
  0
LTYPE
  2
DASHED
  70
65
  3
 _ _ _ _ _ _ _ _ _ _ _ _ _ _ _ _ _ _ _ _ _ _
  72
65
  73
2
  40
1.999999991808
  49
0.999999995904
  49
-0.999999995904
  0
ENDTAB
  0
TABLE
  2
LAYER
  70
1
  0
LAYER
  2
0
  70
0
  62
7
  6
CONTINUOUS
  0
ENDTAB
  0
ENDSEC
  0
SECTION
  2
BLOCKS
  0
ENDSEC
  0
SECTION
  2
ENTITIES
  0
CIRCLE
  8
0
  10
10.802937462784
  20
13.687499784192
  30
0
  40
0.281250004992
  0
CIRCLE
  8
0
  10
12.802937847808
  20
13.687499784192
  30
0
  40
0.281250004992
  0
CIRCLE
  8
0
  10
6.240437010432
  20
13.375000018944
  30
0
  40
0.187500003328
  0
CIRCLE
  8
0
  10
17.365436727296
  20
13.375000018944
  30
0
  40
0.187500003328
  0
CIRCLE
  8
0
  10
20.677935497216
  20
6.312500396032
  30
0
  40
0.187500003328
  0
CIRCLE
  8
0
  10
2.927992766464
  20
7.437500284928
  30
0
  40
0.187500003328
  0
LINE
  8
0
  10
10.177937905619
  20
9.812500120148
  30
0
  11
10.177937905619
  21
6.562500120148
  31
0
  0
ARC
  8
0
  10
11.802937665324
  20
6.5625
  30
0
  40
1.625
  50
180
  51
360
  0
LINE
  8
0
  10
13.427937425028
  20
6.5625
  30
0
  11
13.427937425028
  21
9.8125
  31
0
  0
ARC
  8
0
  10
11.802937665324
  20
9.812500120148
  30
0
  40
1.625
  50
0
  51
180
  0
ARC
  8
0
  10
1.990437094621
  20
14.250000480592
  30
0.25
  40
0.375
  50
271.461310090881
  51
360
  0
LINE
  8
0
  10
2.365437154695
  20
14.250000480592
  30
0.25
  11
21.240437154695
  21
14.250000480592
  31
0.25
  0
ARC
  8
0
  10
21.615437184732
  20
14.250000480592
  30
0.25
  40
0.375
  50
180
  51
268.538689909119
  0
LINE
  8
0
  10
21.312500961184
  20
2.374878230057
  30
0.25
  11
21.605874530569
  21
13.875122149954
  31
0.25
  0
ARC
  8
0
  10
21.302937184732
  20
2.000000120148
  30
0.25
  40
0.375
  50
88.538689909119
  51
180
  0
LINE
  8
0
  10
8.210545937846
  20
2.000000120148
  30
0.25
  11
20.927936939203
  21
2.000000120148
  31
0.25
  0
LINE
  8
0
  10
8.085545817698
  20
5.437500120148
  30
0.25
  11
8.085545817698
  21
2.125000120148
  31
0.25
  0
LINE
  8
0
  10
6.177937064584
  20
5.562500240296
  30
0.25
  11
7.960546063227
  21
5.562500240296
  31
0.25
  0
LINE
  8
0
  10
6.052936944436
  20
5.687500360444
  30
0.25
  11
6.052936944436
  21
6.866848148927
  31
0.25
  0
LINE
  8
0
  10
5.927936824288
  20
6.991848082054
  30
0.25
  11
4.302992531831
  21
6.991848082054
  31
0.25
  0
LINE
  8
0
  10
4.17799281323
  20
7.116848202202
  30
0.25
  11
4.17799281323
  21
7.241848202202
  31
0.25
  0
LINE
  8
0
  10
4.052992693083
  20
7.366847841758
  30
0.25
  11
3.427992693083
  21
7.366847841758
  31
0.25
  0
LINE
  8
0
  10
3.302992873304
  20
7.24184772161
  30
0.25
  11
3.302992873304
  21
5.687499933127
  31
0.25
  0
LINE
  8
0
  10
2.587057098629
  20
5.562500240296
  30
0.25
  11
3.177992908213
  21
5.562500240296
  31
0.25
  0
ARC
  8
0
  10
3.177992753157
  20
5.687500360444
  30
0.25
  40
0.125
  50
270
  51
360
  0
ARC
  8
0
  10
3.427992693083
  20
7.24184772161
  30
0.25
  40
0.125
  50
90
  51
180
  0
ARC
  8
0
  10
4.052992693083
  20
7.24184772161
  30
0.25
  40
0.125
  50
0
  51
90
  0
ARC
  8
0
  10
4.302992933378
  20
7.116848202202
  30
0.25
  40
0.125
  50
180
  51
270
  0
ARC
  8
0
  10
5.927936824288
  20
6.866847961906
  30
0.25
  40
0.125
  50
0
  51
90
  0
ARC
  8
0
  10
6.177937064584
  20
5.687500360444
  30
0.25
  40
0.125
  50
180
  51
270
  0
ARC
  8
0
  10
7.96054629829
  20
5.437500120148
  30
0.25
  40
0.125
  50
0
  51
90
  0
ARC
  8
0
  10
8.210545937846
  20
2.125000240296
  30
0.25
  40
0.125
  50
180
  51
270
  0
LINE
  8
0
  10
2.208762131338
  20
5.684315238412
  30
0.25
  11
2.000000385068
  21
13.87512207955
  31
0.25
  0
LINE
  8
0
  10
2.587057098629
  20
5.562500240296
  30
0.25
  11
2.333721581787
  21
5.562500240296
  31
0.25
  0
ARC
  8
0
  10
2.333721551369
  20
5.687500360444
  30
0.25
  40
0.125
  50
181.46
  51
270
  0
LINE
  8
0
  10
0.000000270333
  20
1.000000120148
  30
0
  11
0.000000270333
  21
0.000000120148
  31
0
  0
LINE
  8
0
  10
0.000000270333
  20
1.000000120148
  30
0
  11
1.000000270333
  21
1.000000120148
  31
0
  0
LINE
  8
0
  10
1.000000270333
  20
0.000000120148
  30
0
  11
1.000000270333
  21
1.000000120148
  31
0
  0
LINE
  8
0
  10
0.000000270333
  20
0.000000120148
  30
0
  11
1.000000270333
  21
0.000000120148
  31
0
  0
TEXT
  8
0
  40
0.1
  72
0
  10
0.299212868758
  20
0.692913505975
  30
0
  1
1"x1"
  50
0
  0
TEXT
  8
0
  40
0.1
  72
0
  10
0.275590821514
  20
0.43307098629
  30
0
  1
scaling
  50
0
  0
TEXT
  8
0
  40
0.1
  72
0
  10
0.208661687656
  20
0.177165474479
  30
0
  1
reference
  50
0
  0
ENDSEC
  0
EOF
