  0
SECTION
  2
HEADER
  9
$ACADVER
  1
AC1009
  9
$MEASUREMENT
  70
0
  9
$INSUNITS
  70
1
  9
$DIMLFAC
  40
0.999999995904
  9
$INSBASE
  10
0.0
  20
0.0
  30
0.0
  9
$EXTMIN
  10
-0.000000030037
  20
-0.000000030037
  9
$EXTMAX
  10
25.874999017472
  20
18.687499173888
  9
$LIMMIN
  10
-0.000000030037
  20
-0.000000030037
  9
$LIMMAX
  10
25.874999017472
  20
18.687499173888
  9
$CLAYER
  8
0
  0
ENDSEC
  0
SECTION
  2
TABLES
  0
TABLE
  2
LTYPE
  70
2
  0
LTYPE
  2
CONTINUOUS
  70
65
  3
Solid line
  72
65
  73
0
  40
0
  0
LTYPE
  2
DASHED
  70
65
  3
 _ _ _ _ _ _ _ _ _ _ _ _ _ _ _ _ _ _ _ _ _ _
  72
65
  73
2
  40
1.999999991808
  49
0.999999995904
  49
-0.999999995904
  0
ENDTAB
  0
TABLE
  2
LAYER
  70
1
  0
LAYER
  2
0
  70
0
  62
7
  6
CONTINUOUS
  0
ENDTAB
  0
ENDSEC
  0
SECTION
  2
BLOCKS
  0
ENDSEC
  0
SECTION
  2
ENTITIES
  0
LINE
  8
0
  10
25.874999017472
  20
1.999999991808
  30
0.062499999744
  11
25.874999017472
  21
18.687499173888
  31
0.062499999744
  0
CIRCLE
  8
0
  10
18.687497076736
  20
10.34375135232
  30
0.062499999744
  40
1.500000026624
  0
LINE
  8
0
  10
1.999999991808
  20
16.656250175488
  30
0
  11
1.999999991808
  21
16.468750106624
  31
0
  0
LINE
  8
0
  10
25.688174231552
  20
2.015894831104
  30
0
  11
25.874999017472
  21
1.999999991808
  31
0
  0
LINE
  8
0
  10
1.999999991808
  20
4.031249907712
  30
0
  11
1.999999991808
  21
4.218749452288
  31
0
  0
LINE
  8
0
  10
1.999999991808
  20
4.031249907712
  30
0
  11
2.186825039872
  21
4.015355068416
  31
0
  0
CIRCLE
  8
0
  10
2.374999998464
  20
16.28125003776
  30
0.062499999744
  40
0.078124998656
  0
CIRCLE
  8
0
  10
25.500674162688
  20
18.248747712512
  30
0.062499999744
  40
0.078124998656
  0
CIRCLE
  8
0
  10
25.500674162688
  20
2.438751322112
  30
0.062499999744
  40
0.078124998656
  0
CIRCLE
  8
0
  10
25.500953083904
  20
5.445374705664
  30
0.062499999744
  40
0.078124998656
  0
CIRCLE
  8
0
  10
25.500953083904
  20
8.445373710336
  30
0.062499999744
  40
0.078124998656
  0
CIRCLE
  8
0
  10
25.500953083904
  20
12.242126897152
  30
0.062499999744
  40
0.078124998656
  0
CIRCLE
  8
0
  10
25.500953083904
  20
15.242125901824
  30
0.062499999744
  40
0.078124998656
  0
CIRCLE
  8
0
  10
2.374999998464
  20
10.34375135232
  30
0.062499999744
  40
0.078124998656
  0
CIRCLE
  8
0
  10
2.374999998464
  20
13.343750356992
  30
0.062499999744
  40
0.078124998656
  0
CIRCLE
  8
0
  10
2.374999998464
  20
7.343749726208
  30
0.062499999744
  40
0.078124998656
  0
LINE
  8
0
  10
1.999999991808
  20
4.031249907712
  30
0
  11
1.999999991808
  21
4.40625004544
  31
0
  0
CIRCLE
  8
0
  10
22.138499104768
  20
2.724800233472
  30
0.062499999744
  40
0.078124998656
  0
CIRCLE
  8
0
  10
18.775646666752
  20
3.010906816512
  30
0.062499999744
  40
0.078124998656
  0
CIRCLE
  8
0
  10
15.363718774784
  20
3.301188829184
  30
0.062499999744
  40
0.078124998656
  0
LINE
  8
0
  10
5.128298954752
  20
4.250128351232
  30
0
  11
5.141496856576
  21
4.249005326336
  31
0
  0
LINE
  8
0
  10
8.428874891264
  20
3.969319960576
  30
0
  11
8.442073841664
  21
3.968197459968
  31
0
  0
CIRCLE
  8
0
  10
22.1382180864
  20
17.96932108288
  30
0.062499999744
  40
0.078124998656
  0
CIRCLE
  8
0
  10
18.775365648384
  20
17.683215024128
  30
0.062499999744
  40
0.078124998656
  0
CIRCLE
  8
0
  10
15.363437756416
  20
17.392932487168
  30
0.062499999744
  40
0.078124998656
  0
CIRCLE
  8
0
  10
5.128298954752
  20
4.172003147776
  30
0.062499999744
  40
0.078124998656
  0
CIRCLE
  8
0
  10
2.374999998464
  20
4.40625004544
  30
0.062499999744
  40
0.078124998656
  0
CIRCLE
  8
0
  10
8.428874891264
  20
3.891195019264
  30
0.062499999744
  40
0.078124998656
  0
CIRCLE
  8
0
  10
11.16897542144
  20
3.658071146496
  30
0.062499999744
  40
0.078124998656
  0
LINE
  8
0
  10
2.374999998464
  20
4.484374724608
  30
0
  11
2.388197900288
  21
4.483252224
  31
0
  0
CIRCLE
  8
0
  10
11.16897542144
  20
17.029427888128
  30
0.062499999744
  40
0.078124998656
  0
CIRCLE
  8
0
  10
8.428874891264
  20
16.796304277504
  30
0.062499999744
  40
0.078124998656
  0
CIRCLE
  8
0
  10
5.128298954752
  20
16.51549667328
  30
0.062499999744
  40
0.078124998656
  0
LINE
  8
0
  10
1.999999969963
  20
16.656250240296
  30
0.0625
  11
1.999999969963
  21
4.03125017186
  31
0.0625
  0
LINE
  8
0
  10
1.999999969963
  20
16.656250240296
  30
0.0625
  11
1.999999969963
  21
4.03125017186
  31
0.0625
  0
LINE
  8
0
  10
13.874999519408
  20
3.02094226747
  30
0.0625
  11
25.874998989664
  21
1.99999996552
  31
0.0625
  0
LINE
  8
0
  10
1.999999969963
  20
4.031249819778
  30
0.0625
  11
11.901887678839
  21
3.188811790081
  31
0.0625
  0
ARC
  8
0
  10
12.773072075872
  20
18.755869885897
  30
0
  40
1.522554923741
  50
259.381157047875
  51
274.937709534591
  0
ARC
  8
0
  10
12.812008571263
  20
18.938948987794
  30
0
  40
1.709679775462
  50
243.757538360608
  51
259.229248642677
  0
ARC
  8
0
  10
12.928808758206
  20
19.192054523949
  30
0
  40
1.98835644738
  50
238.453229208895
  51
243.963690235717
  0
ARC
  8
0
  10
12.637211481507
  20
19.04817275728
  30
0
  40
1.846941701644
  50
296.275343646524
  51
311.524549052348
  0
ARC
  8
0
  10
12.766722415552
  20
18.794725470157
  30
0
  40
1.562353697962
  50
280.728805889442
  51
296.131143589006
  0
ARC
  8
0
  10
12.778984763635
  20
18.744434493932
  30
0
  40
1.510661463201
  50
274.751634799829
  51
280.626940038726
  0
ARC
  8
0
  10
12.786448146631
  20
1.930492589876
  30
0
  40
1.522554923741
  50
85.062290465409
  51
100.618842952125
  0
ARC
  8
0
  10
12.825384642022
  20
1.747413487978
  30
0
  40
1.709679775463
  50
100.770751357325
  51
116.24246163939
  0
ARC
  8
0
  10
12.942184828964
  20
1.494307951823
  30
0
  40
1.98835644738
  50
116.036309764283
  51
121.546770791105
  0
ARC
  8
0
  10
12.650586350786
  20
1.638189201382
  30
0
  40
1.846941701644
  50
48.475450947651
  51
63.724656353477
  0
ARC
  8
0
  10
12.780097284831
  20
1.891636488504
  30
0
  40
1.562353697963
  50
63.868856410996
  51
79.271194110556
  0
ARC
  8
0
  10
12.792359632914
  20
1.941927464729
  30
0
  40
1.510661463202
  50
79.373059961274
  51
85.24836520017
  0
LINE
  8
0
  10
13.861624650129
  20
17.665419691191
  30
0
  11
25.875000089155
  21
18.687500062312
  31
0
  0
LINE
  8
0
  10
1.999999969963
  20
16.656250240296
  30
0
  11
11.888512040476
  21
17.497550351007
  31
0
  0
LINE
  8
0
  10
-0.000000030037
  20
0.999999969963
  30
0
  11
-0.000000030037
  21
-0.000000030037
  31
0
  0
LINE
  8
0
  10
-0.000000030037
  20
0.999999969963
  30
0
  11
0.999999969963
  21
0.999999969963
  31
0
  0
LINE
  8
0
  10
0.999999969963
  20
-0.000000030037
  30
0
  11
0.999999969963
  21
0.999999969963
  31
0
  0
LINE
  8
0
  10
-0.000000030037
  20
-0.000000030037
  30
0
  11
0.999999969963
  21
-0.000000030037
  31
0
  0
TEXT
  8
0
  40
0.1
  72
0
  10
0.299212568388
  20
0.69291335579
  30
0
  1
1"x1"
  50
0
  0
TEXT
  8
0
  40
0.1
  72
0
  10
0.275590521144
  20
0.433070836105
  30
0
  1
scaling
  50
0
  0
TEXT
  8
0
  40
0.1
  72
0
  10
0.208661387286
  20
0.177165324294
  30
0
  1
reference
  50
0
  0
ENDSEC
  0
EOF
