  0
SECTION
  2
HEADER
  9
$ACADVER
  1
AC1009
  9
$MEASUREMENT
  70
0
  9
$INSUNITS
  70
1
  9
$DIMLFAC
  40
0.999999995904
  9
$INSBASE
  10
0.0
  20
0.0
  30
0.0
  9
$EXTMIN
  10
-0.000000180222
  20
-0.000000030037
  9
$EXTMAX
  10
19.75000236032
  20
26.24415858688
  9
$LIMMIN
  10
-0.000000180222
  20
-0.000000030037
  9
$LIMMAX
  10
19.75000236032
  20
26.24415858688
  9
$CLAYER
  8
0
  0
ENDSEC
  0
SECTION
  2
TABLES
  0
TABLE
  2
LTYPE
  70
2
  0
LTYPE
  2
CONTINUOUS
  70
65
  3
Solid line
  72
65
  73
0
  40
0
  0
LTYPE
  2
DASHED
  70
65
  3
 _ _ _ _ _ _ _ _ _ _ _ _ _ _ _ _ _ _ _ _ _ _
  72
65
  73
2
  40
1.999999991808
  49
0.999999995904
  49
-0.999999995904
  0
ENDTAB
  0
TABLE
  2
LAYER
  70
1
  0
LAYER
  2
0
  70
0
  62
7
  6
CONTINUOUS
  0
ENDTAB
  0
ENDSEC
  0
SECTION
  2
BLOCKS
  0
ENDSEC
  0
SECTION
  2
ENTITIES
  0
CIRCLE
  8
0
  10
2.37499973632
  20
15.622096289792
  30
0
  40
0.078124998656
  0
CIRCLE
  8
0
  10
2.37499973632
  20
12.622095187968
  30
0
  40
0.078124998656
  0
CIRCLE
  8
0
  10
2.37499973632
  20
18.122094411776
  30
0
  40
0.078124998656
  0
CIRCLE
  8
0
  10
2.37499973632
  20
20.622096728064
  30
0
  40
0.078124998656
  0
CIRCLE
  8
0
  10
2.37499973632
  20
23.1220969472
  30
0
  40
0.078124998656
  0
CIRCLE
  8
0
  10
2.37499973632
  20
10.122094968832
  30
0
  40
0.078124998656
  0
CIRCLE
  8
0
  10
2.37499973632
  20
7.622095798272
  30
0
  40
0.078124998656
  0
CIRCLE
  8
0
  10
2.37499973632
  20
5.122096103424
  30
0
  40
0.078124998656
  0
CIRCLE
  8
0
  10
19.5000008704
  20
16.62209490944
  30
0
  40
0.078124998656
  0
CIRCLE
  8
0
  10
19.5000008704
  20
11.622095519744
  30
0
  40
0.078124998656
  0
CIRCLE
  8
0
  10
19.5000008704
  20
14.12209573888
  30
0
  40
0.078124998656
  0
CIRCLE
  8
0
  10
19.5000008704
  20
18.747096039424
  30
0
  40
0.078124998656
  0
CIRCLE
  8
0
  10
19.5000008704
  20
20.872096120832
  30
0
  40
0.078124998656
  0
CIRCLE
  8
0
  10
19.5000008704
  20
22.997094105088
  30
0
  40
0.078124998656
  0
CIRCLE
  8
0
  10
19.5000008704
  20
9.497096486912
  30
0
  40
0.078124998656
  0
CIRCLE
  8
0
  10
19.5000008704
  20
7.372095881216
  30
0
  40
0.078124998656
  0
CIRCLE
  8
0
  10
19.5000008704
  20
5.247095799808
  30
0
  40
0.078124998656
  0
LINE
  8
0
  10
18.312500480592
  20
3.202065895862
  30
0.025
  11
18.312500480592
  21
4.62209616107
  31
0.025
  0
LINE
  8
0
  10
18.312500480592
  20
4.622095964086
  30
0.025
  11
19.750000480592
  21
4.622095964086
  31
0.025
  0
LINE
  8
0
  10
19.749999759704
  20
4.622095964086
  30
0.025
  11
19.749999759704
  21
23.622095964086
  31
0.025
  0
LINE
  8
0
  10
19.749999759704
  20
23.622095303273
  30
0.025
  11
18.312499759704
  21
23.622095303273
  31
0.025
  0
LINE
  8
0
  10
18.312500480592
  20
23.622095303273
  30
0.025
  11
18.312500480592
  21
24.934595303273
  31
0.025
  0
LINE
  8
0
  10
18.312500480592
  20
24.934596264456
  30
0.025
  11
18.08158925136
  21
26.244158920743
  31
0.025
  0
LINE
  8
0
  10
18.081588144377
  20
26.244158406896
  30
0.025
  11
4.874999373609
  21
26.220907370328
  31
0.025
  0
LINE
  8
0
  10
4.874999879852
  20
26.220907376507
  30
0.025
  11
4.874999879852
  21
24.122095756789
  31
0.025
  0
ARC
  8
0
  10
4.375
  20
24.122095783864
  30
0.025
  40
0.5
  50
-180
  51
0
  0
LINE
  8
0
  10
3.874999819778
  20
24.122095783864
  30
0.025
  11
3.874999819778
  21
26.219146840202
  31
0.025
  0
LINE
  8
0
  10
3.874999819778
  20
26.219146007628
  30
0.025
  11
1.999999819778
  21
26.21584495129
  31
0.025
  0
LINE
  8
0
  10
1.999999819778
  20
26.215846745048
  30
0.025
  11
1.999999819778
  21
2.028346745048
  31
0.025
  0
LINE
  8
0
  10
1.999999819778
  20
2.02834602416
  30
0.025
  11
3.874999819778
  21
2.025044967822
  31
0.025
  0
LINE
  8
0
  10
3.874999819778
  20
2.025044959361
  30
0.025
  11
3.874999819778
  21
4.122096015699
  31
0.025
  0
ARC
  8
0
  10
4.375
  20
4.122096084234
  30
0.025
  40
0.5
  50
0
  51
180
  0
LINE
  8
0
  10
4.874999879852
  20
4.122096084234
  30
0.025
  11
4.874999879852
  21
2.023284464516
  31
0.025
  0
LINE
  8
0
  10
4.874999879852
  20
2.023284341407
  30
0.025
  11
18.100543253451
  21
1.999999934059
  31
0.025
  0
LINE
  8
0
  10
18.10054268424
  20
1.999999969963
  30
0.025
  11
18.312499310641
  21
3.20206573182
  31
0.025
  0
LINE
  8
0
  10
-0.000000180222
  20
0.999999969963
  30
0
  11
-0.000000180222
  21
-0.000000030037
  31
0
  0
LINE
  8
0
  10
-0.000000180222
  20
0.999999969963
  30
0
  11
0.999999819778
  21
0.999999969963
  31
0
  0
LINE
  8
0
  10
0.999999819778
  20
-0.000000030037
  30
0
  11
0.999999819778
  21
0.999999969963
  31
0
  0
LINE
  8
0
  10
-0.000000180222
  20
-0.000000030037
  30
0
  11
0.999999819778
  21
-0.000000030037
  31
0
  0
TEXT
  8
0
  40
0.1
  72
0
  10
0.299212418203
  20
0.69291335579
  30
0
  1
1"x1"
  50
0
  0
TEXT
  8
0
  40
0.1
  72
0
  10
0.275590370959
  20
0.433070836105
  30
0
  1
scaling
  50
0
  0
TEXT
  8
0
  40
0.1
  72
0
  10
0.208661237101
  20
0.177165324294
  30
0
  1
reference
  50
0
  0
ENDSEC
  0
EOF
