  0
SECTION
  2
HEADER
  9
$ACADVER
  1
AC1009
  9
$MEASUREMENT
  70
0
  9
$INSUNITS
  70
1
  9
$DIMLFAC
  40
0.999999995904
  9
$INSBASE
  10
0.0
  20
0.0
  30
0.0
  9
$EXTMIN
  10
-0.000000480592
  20
-0.000000030037
  9
$EXTMAX
  10
33.682876268544
  20
21.229190774784
  9
$LIMMIN
  10
-0.000000480592
  20
-0.000000030037
  9
$LIMMAX
  10
33.682876268544
  20
21.229190774784
  9
$CLAYER
  8
0
  0
ENDSEC
  0
SECTION
  2
TABLES
  0
TABLE
  2
LTYPE
  70
2
  0
LTYPE
  2
CONTINUOUS
  70
65
  3
Solid line
  72
65
  73
0
  40
0
  0
LTYPE
  2
DASHED
  70
65
  3
 _ _ _ _ _ _ _ _ _ _ _ _ _ _ _ _ _ _ _ _ _ _
  72
65
  73
2
  40
1.999999991808
  49
0.999999995904
  49
-0.999999995904
  0
ENDTAB
  0
TABLE
  2
LAYER
  70
1
  0
LAYER
  2
0
  70
0
  62
7
  6
CONTINUOUS
  0
ENDTAB
  0
ENDSEC
  0
SECTION
  2
BLOCKS
  0
ENDSEC
  0
SECTION
  2
ENTITIES
  0
CIRCLE
  8
0
  10
4.433374609408
  20
2.124999950336
  30
0
  40
0.078124998656
  0
CIRCLE
  8
0
  10
7.620875255808
  20
2.140625043456
  30
0
  40
0.078124998656
  0
CIRCLE
  8
0
  10
10.620875309056
  20
2.124999950336
  30
0
  40
0.078124998656
  0
CIRCLE
  8
0
  10
13.620875362304
  20
2.140625043456
  30
0
  40
0.078124998656
  0
CIRCLE
  8
0
  10
16.620874366976
  20
2.124999950336
  30
0
  40
0.078124998656
  0
CIRCLE
  8
0
  10
19.620876517376
  20
2.124999950336
  30
0
  40
0.078124998656
  0
CIRCLE
  8
0
  10
22.620875522048
  20
2.124999950336
  30
0
  40
0.078124998656
  0
CIRCLE
  8
0
  10
25.60568066048
  20
2.140625043456
  30
0
  40
0.078124998656
  0
CIRCLE
  8
0
  10
28.605677568
  20
2.124999950336
  30
0
  40
0.078124998656
  0
CIRCLE
  8
0
  10
31.918177386496
  20
2.124999950336
  30
0
  40
0.078124998656
  0
CIRCLE
  8
0
  10
33.49537619968
  20
3.750215811072
  30
0
  40
0.078124998656
  0
CIRCLE
  8
0
  10
33.49537619968
  20
6.581548744704
  30
0
  40
0.078124998656
  0
CIRCLE
  8
0
  10
33.49537619968
  20
9.412882202624
  30
0
  40
0.078124998656
  0
CIRCLE
  8
0
  10
33.49537619968
  20
12.244215660544
  30
0
  40
0.078124998656
  0
CIRCLE
  8
0
  10
2.870874996736
  20
21.000001421312
  30
0
  40
0.078124998656
  0
ARC
  8
0
  10
2.124999489371
  20
2.125000090111
  30
0.025
  40
0.125
  50
178.140400656269
  51
270
  0
LINE
  8
0
  10
2.124999489371
  20
2.000000120148
  30
0.025
  11
31.932875181364
  21
2.000000120148
  31
0.025
  0
ARC
  8
0
  10
31.932875265287
  20
3.75
  30
0.025
  40
1.75
  50
270
  51
360
  0
LINE
  8
0
  10
33.682875745878
  20
3.75
  30
0.025
  11
33.682875745878
  21
12.244215485983
  31
0.025
  0
ARC
  8
0
  10
33.182875265287
  20
12.244215837614
  30
0.025
  40
0.5
  50
0
  51
113.025608434777
  0
LINE
  8
0
  10
32.987303245725
  20
12.704380065437
  30
0.025
  11
32.838508703688
  21
12.641142028105
  31
0.025
  0
LINE
  8
0
  10
32.838509627215
  20
12.641142597349
  30
0.025
  11
30.993911102291
  21
11.868257141016
  31
0.025
  0
ARC
  8
0
  10
20.832854330016
  20
36.178619964128
  30
0.025
  40
26.348449686375
  50
277.490991895101
  51
292.683572951047
  0
ARC
  8
0
  10
22.437657533775
  20
25.643449845691
  30
0.025
  40
15.695483565312
  50
260.843019728304
  51
276.696503938581
  0
ARC
  8
0
  10
24.711243226068
  20
38.155479115483
  30
0.025
  40
28.411008765999
  50
255.447000430451
  51
260.331892074275
  0
ARC
  8
0
  10
10.424395609454
  20
-18.222313761833
  30
0.025
  40
29.749790587104
  50
76.097768655531
  51
77.978044919958
  0
ARC
  8
0
  10
23.228275560324
  20
34.424659471988
  30
0.025
  40
24.459030868504
  50
238.98953046458
  51
254.327310002906
  0
ARC
  8
0
  10
17.459664915192
  20
24.622869990443
  30
0.025
  40
13.086649382579
  50
222.780074255448
  51
238.526713999804
  0
ARC
  8
0
  10
14.461141240799
  20
21.786412567773
  30
0.025
  40
8.959466751835
  50
206.785890515444
  51
222.490328179831
  0
ARC
  8
0
  10
12.993213458269
  20
21.021627754763
  30
0.025
  40
7.304426832598
  50
190.997547455533
  51
206.619692162502
  0
ARC
  8
0
  10
12.860595460286
  20
20.974090430761
  30
0.025
  40
7.16520761951
  50
186.805646617929
  51
190.826702910227
  0
LINE
  8
0
  10
5.745875441183
  20
20.124999519408
  30
0.025
  11
5.745875441183
  21
21.124999519408
  31
0.025
  0
LINE
  8
0
  10
5.745875441183
  20
21.125000480592
  30
0.025
  11
2.620199767181
  21
21.229189669725
  31
0.025
  0
LINE
  8
0
  10
2.620199608991
  20
21.229190375861
  30
0.025
  11
2.00006542275
  21
2.129057490903
  31
0.025
  0
LINE
  8
0
  10
-0.000000480592
  20
0.999999969963
  30
0
  11
-0.000000480592
  21
-0.000000030037
  31
0
  0
LINE
  8
0
  10
-0.000000480592
  20
0.999999969963
  30
0
  11
0.999999519408
  21
0.999999969963
  31
0
  0
LINE
  8
0
  10
0.999999519408
  20
-0.000000030037
  30
0
  11
0.999999519408
  21
0.999999969963
  31
0
  0
LINE
  8
0
  10
-0.000000480592
  20
-0.000000030037
  30
0
  11
0.999999519408
  21
-0.000000030037
  31
0
  0
TEXT
  8
0
  40
0.1
  72
0
  10
0.299212117833
  20
0.69291335579
  30
0
  1
1"x1"
  50
0
  0
TEXT
  8
0
  40
0.1
  72
0
  10
0.275590070589
  20
0.433070836105
  30
0
  1
scaling
  50
0
  0
TEXT
  8
0
  40
0.1
  72
0
  10
0.208660936731
  20
0.177165324294
  30
0
  1
reference
  50
0
  0
ENDSEC
  0
EOF
