  0
SECTION
  2
HEADER
  9
$ACADVER
  1
AC1009
  9
$MEASUREMENT
  70
0
  9
$INSUNITS
  70
1
  9
$DIMLFAC
  40
0.999999995904
  9
$INSBASE
  10
0.0
  20
0.0
  30
0.0
  9
$EXTMIN
  10
-0.000000480592
  20
-0.000000030037
  9
$EXTMAX
  10
35.559690993664
  20
24.277499772928
  9
$LIMMIN
  10
-0.000000480592
  20
-0.000000030037
  9
$LIMMAX
  10
35.559690993664
  20
24.277499772928
  9
$CLAYER
  8
0
  0
ENDSEC
  0
SECTION
  2
TABLES
  0
TABLE
  2
LTYPE
  70
2
  0
LTYPE
  2
CONTINUOUS
  70
65
  3
Solid line
  72
65
  73
0
  40
0
  0
LTYPE
  2
DASHED
  70
65
  3
 _ _ _ _ _ _ _ _ _ _ _ _ _ _ _ _ _ _ _ _ _ _
  72
65
  73
2
  40
1.999999991808
  49
0.999999995904
  49
-0.999999995904
  0
ENDTAB
  0
TABLE
  2
LAYER
  70
1
  0
LAYER
  2
0
  70
0
  62
7
  6
CONTINUOUS
  0
ENDTAB
  0
ENDSEC
  0
SECTION
  2
BLOCKS
  0
ENDSEC
  0
SECTION
  2
ENTITIES
  0
CIRCLE
  8
0
  10
17.33399937024
  20
2.573743685632
  30
0
  40
0.078124998656
  0
CIRCLE
  8
0
  10
20.458051207168
  20
2.64666611712
  30
0
  40
0.078124998656
  0
CIRCLE
  8
0
  10
18.896025288704
  20
2.610204770304
  30
0
  40
0.078124998656
  0
CIRCLE
  8
0
  10
3.707914682368
  20
2.25583169536
  30
0
  40
0.078124998656
  0
CIRCLE
  8
0
  10
14.645551169536
  20
2.51104329728
  30
0
  40
0.078124998656
  0
CIRCLE
  8
0
  10
12.45834641408
  20
2.460004384768
  30
0
  40
0.078124998656
  0
CIRCLE
  8
0
  10
10.271140610048
  20
2.408965210112
  30
0
  40
0.078124998656
  0
CIRCLE
  8
0
  10
8.083936903168
  20
2.357926035456
  30
0
  40
0.078124998656
  0
CIRCLE
  8
0
  10
5.895118913536
  20
2.306870607872
  30
0
  40
0.078124998656
  0
CIRCLE
  8
0
  10
26.706974867456
  20
10.385913544704
  30
0
  40
0.078124998656
  0
CIRCLE
  8
0
  10
31.159750754304
  20
17.611551145984
  30
0
  40
0.078124998656
  0
CIRCLE
  8
0
  10
30.046616027136
  20
15.805239525376
  30
0
  40
0.078124998656
  0
CIRCLE
  8
0
  10
28.93348339712
  20
13.99893000192
  30
0
  40
0.078124998656
  0
CIRCLE
  8
0
  10
27.820350767104
  20
12.192618381312
  30
0
  40
0.078124998656
  0
CIRCLE
  8
0
  10
32.274586271744
  20
19.420629958656
  30
0
  40
0.078124998656
  0
CIRCLE
  8
0
  10
33.323843846144
  20
21.123288793088
  30
0
  40
0.078124998656
  0
CIRCLE
  8
0
  10
34.438681460736
  20
22.93236760576
  30
0
  40
0.078124998656
  0
CIRCLE
  8
0
  10
25.657717293056
  20
8.683252088832
  30
0
  40
0.078124998656
  0
CIRCLE
  8
0
  10
24.608457621504
  20
6.98059063296
  30
0
  40
0.078124998656
  0
CIRCLE
  8
0
  10
23.559197949952
  20
5.277929701376
  30
0
  40
0.078124998656
  0
LINE
  8
0
  10
14.895483302319
  20
2.266874989187
  30
0.025
  11
14.895483302319
  21
4.527499890667
  31
0.025
  0
ARC
  8
0
  10
15.270483062023
  20
4.527499882255
  30
0.025
  40
0.375
  50
90
  51
180
  0
LINE
  8
0
  10
15.270483062023
  20
4.902499942329
  30
0.025
  11
16.707983062023
  21
4.902499942329
  31
0.025
  0
ARC
  8
0
  10
16.707982341136
  20
4.527499882255
  30
0.025
  40
0.375
  50
0
  51
90
  0
LINE
  8
0
  10
17.082983302319
  20
4.527499882255
  30
0.025
  11
17.082983302319
  21
2.317916664099
  31
0.025
  0
LINE
  8
0
  10
17.082983302319
  20
2.317916689895
  30
0.025
  11
20.707983302319
  21
2.402500050833
  31
0.025
  0
LINE
  8
0
  10
20.707983782911
  20
2.402500092514
  30
0.025
  11
20.707983782911
  21
4.027500092514
  31
0.025
  0
ARC
  8
0
  10
21.082982341136
  20
4.027500002403
  30
0.025
  40
0.375
  50
90
  51
180
  0
LINE
  8
0
  10
21.082982341136
  20
4.402500062477
  30
0.025
  11
23.460083269461
  21
4.402500062477
  31
0.025
  0
LINE
  8
0
  10
23.460083007812
  20
4.402500062477
  30
0.025
  11
35.531816903104
  21
23.991631883472
  31
0.025
  0
ARC
  8
0
  10
35.372191902221
  20
24.089999461737
  30
0.025
  40
0.1875
  50
328.356693490632
  51
450
  0
LINE
  8
0
  10
35.372191902221
  20
24.277499942329
  30
0.025
  11
2.582981585083
  21
24.277499942329
  31
0.025
  0
LINE
  8
0
  10
2.582982881801
  20
24.277499942329
  30
0.025
  11
1.999999689286
  21
3.465000347026
  31
0.025
  0
LINE
  8
0
  10
1.999999519408
  20
3.465000062477
  30
0.025
  11
3.082982711923
  21
3.465000062477
  31
0.025
  0
ARC
  8
0
  10
3.082982761653
  20
3.090000002403
  30
0.025
  40
0.375
  50
0
  51
90
  0
LINE
  8
0
  10
3.457982821727
  20
3.090000002403
  30
0.025
  11
3.457982821727
  21
2.000000013826
  31
0.025
  0
LINE
  8
0
  10
3.457982821727
  20
1.999999969963
  30
0.025
  11
14.895482821727
  21
2.26687505706
  31
0.025
  0
LINE
  8
0
  10
-0.000000480592
  20
0.999999969963
  30
0
  11
-0.000000480592
  21
-0.000000030037
  31
0
  0
LINE
  8
0
  10
-0.000000480592
  20
0.999999969963
  30
0
  11
0.999999519408
  21
0.999999969963
  31
0
  0
LINE
  8
0
  10
0.999999519408
  20
-0.000000030037
  30
0
  11
0.999999519408
  21
0.999999969963
  31
0
  0
LINE
  8
0
  10
-0.000000480592
  20
-0.000000030037
  30
0
  11
0.999999519408
  21
-0.000000030037
  31
0
  0
TEXT
  8
0
  40
0.1
  72
0
  10
0.299212117833
  20
0.69291335579
  30
0
  1
1"x1"
  50
0
  0
TEXT
  8
0
  40
0.1
  72
0
  10
0.275590070589
  20
0.433070836105
  30
0
  1
scaling
  50
0
  0
TEXT
  8
0
  40
0.1
  72
0
  10
0.208660936731
  20
0.177165324294
  30
0
  1
reference
  50
0
  0
ENDSEC
  0
EOF
