  0
SECTION
  2
HEADER
  9
$ACADVER
  1
AC1009
  9
$MEASUREMENT
  70
0
  9
$INSUNITS
  70
1
  9
$DIMLFAC
  40
0.999999995904
  9
$INSBASE
  10
0.0
  20
0.0
  30
0.0
  9
$EXTMIN
  10
-0.000000931146
  20
-0.000001081332
  9
$EXTMAX
  10
26.499998547968
  20
22.999998660608
  9
$LIMMIN
  10
-0.000000931146
  20
-0.000001081332
  9
$LIMMAX
  10
26.499998547968
  20
22.999998660608
  9
$CLAYER
  8
0
  0
ENDSEC
  0
SECTION
  2
TABLES
  0
TABLE
  2
LTYPE
  70
2
  0
LTYPE
  2
CONTINUOUS
  70
65
  3
Solid line
  72
65
  73
0
  40
0
  0
LTYPE
  2
DASHED
  70
65
  3
 _ _ _ _ _ _ _ _ _ _ _ _ _ _ _ _ _ _ _ _ _ _
  72
65
  73
2
  40
1.999999991808
  49
0.999999995904
  49
-0.999999995904
  0
ENDTAB
  0
TABLE
  2
LAYER
  70
1
  0
LAYER
  2
0
  70
0
  62
7
  6
CONTINUOUS
  0
ENDTAB
  0
ENDSEC
  0
SECTION
  2
BLOCKS
  0
ENDSEC
  0
SECTION
  2
ENTITIES
  0
CIRCLE
  8
0
  10
25.874999017472
  20
12.499998998528
  30
0
  40
0.10937499648
  0
CIRCLE
  8
0
  10
25.9063283712
  20
17.537510146048
  30
0
  40
0.10937499648
  0
CIRCLE
  8
0
  10
2.499999432704
  20
20.112748838912
  30
0
  40
0.10937499648
  0
CIRCLE
  8
0
  10
2.499999432704
  20
17.112748785664
  30
0
  40
0.10937499648
  0
CIRCLE
  8
0
  10
2.499999432704
  20
14.112748732416
  30
0
  40
0.10937499648
  0
CIRCLE
  8
0
  10
25.9063283712
  20
7.462488375296
  30
0
  40
0.10937499648
  0
CIRCLE
  8
0
  10
2.499999432704
  20
4.887248633856
  30
0
  40
0.10937499648
  0
CIRCLE
  8
0
  10
2.499999432704
  20
7.887249211392
  30
0
  40
0.10937499648
  0
CIRCLE
  8
0
  10
2.499999432704
  20
10.887248216064
  30
0
  40
0.10937499648
  0
CIRCLE
  8
0
  10
3.743217876992
  20
20.24278065152
  30
0
  40
0.10937499648
  0
CIRCLE
  8
0
  10
7.224229888
  20
20.606865113088
  30
0
  40
0.10937499648
  0
CIRCLE
  8
0
  10
10.705241636864
  20
20.970951671808
  30
0
  40
0.10937499648
  0
CIRCLE
  8
0
  10
17.667261988864
  20
21.699118497792
  30
0
  40
0.10937499648
  0
CIRCLE
  8
0
  10
14.18625286144
  20
21.335036133376
  30
0
  40
0.10937499648
  0
CIRCLE
  8
0
  10
24.62928863232
  20
22.427291615232
  30
0
  40
0.10937499648
  0
CIRCLE
  8
0
  10
21.148274262016
  20
22.063207153664
  30
0
  40
0.10937499648
  0
CIRCLE
  8
0
  10
26.002711379968
  20
22.570940235776
  30
0
  40
0.10937499648
  0
CIRCLE
  8
0
  10
3.743217876992
  20
4.757217869824
  30
0
  40
0.10937499648
  0
CIRCLE
  8
0
  10
7.224229888
  20
4.393132621824
  30
0
  40
0.10937499648
  0
CIRCLE
  8
0
  10
10.705241636864
  20
4.02904711168
  30
0
  40
0.10937499648
  0
CIRCLE
  8
0
  10
14.18625286144
  20
3.664962125824
  30
0
  40
0.10937499648
  0
CIRCLE
  8
0
  10
17.667261988864
  20
3.300876353536
  30
0
  40
0.10937499648
  0
CIRCLE
  8
0
  10
21.148274262016
  20
2.936790843392
  30
0
  40
0.10937499648
  0
CIRCLE
  8
0
  10
24.62928863232
  20
2.572705857536
  30
0
  40
0.10937499648
  0
CIRCLE
  8
0
  10
26.002711379968
  20
2.429056712704
  30
0
  40
0.10937499648
  0
LINE
  8
0
  10
1.999999519408
  20
4.562498978742
  30
0.025
  11
26.499999519408
  21
1.999998978742
  31
0.025
  0
LINE
  8
0
  10
26.499999038816
  20
1.999998918668
  30
0.025
  11
26.499999038816
  21
2.438469462368
  31
0.025
  0
ARC
  8
0
  10
431.374992310531
  20
12.499998798521
  30
0.025
  40
404.99999999993
  50
178.576438297323
  51
181.423561702677
  0
LINE
  8
0
  10
26.499999038816
  20
22.561527762826
  30
0.025
  11
26.499999038816
  21
22.999998306525
  31
0.025
  0
LINE
  8
0
  10
26.499999038816
  20
22.999998077633
  30
0.025
  11
1.999999038816
  21
20.437498077633
  31
0.025
  0
LINE
  8
0
  10
1.999999519408
  20
20.437499519408
  30
0.025
  11
1.999999519408
  21
4.562499519408
  31
0.025
  0
LINE
  8
0
  10
-0.000000931147
  20
0.999998918668
  30
0
  11
-0.000000931147
  21
-0.000001081332
  31
0
  0
LINE
  8
0
  10
-0.000000931147
  20
0.999998918668
  30
0
  11
0.999999068853
  21
0.999998918668
  31
0
  0
LINE
  8
0
  10
0.999999068853
  20
-0.000001081332
  30
0
  11
0.999999068853
  21
0.999998918668
  31
0
  0
LINE
  8
0
  10
-0.000000931147
  20
-0.000001081332
  30
0
  11
0.999999068853
  21
-0.000001081332
  31
0
  0
TEXT
  8
0
  40
0.1
  72
0
  10
0.299211667279
  20
0.692912304495
  30
0
  1
1"x1"
  50
0
  0
TEXT
  8
0
  40
0.1
  72
0
  10
0.275589620035
  20
0.43306978481
  30
0
  1
scaling
  50
0
  0
TEXT
  8
0
  40
0.1
  72
0
  10
0.208660486176
  20
0.177164272999
  30
0
  1
reference
  50
0
  0
ENDSEC
  0
EOF
