  0
SECTION
  2
HEADER
  9
$ACADVER
  1
AC1009
  9
$MEASUREMENT
  70
0
  9
$INSUNITS
  70
1
  9
$DIMLFAC
  40
0.999999995904
  9
$INSBASE
  10
0.0
  20
0.0
  30
0.0
  9
$EXTMIN
  10
-0.000000180222
  20
-0.000000180222
  9
$EXTMAX
  10
26.125000507392
  20
37.500001189888
  9
$LIMMIN
  10
-0.000000180222
  20
-0.000000180222
  9
$LIMMAX
  10
26.125000507392
  20
37.500001189888
  9
$CLAYER
  8
0
  0
ENDSEC
  0
SECTION
  2
TABLES
  0
TABLE
  2
LTYPE
  70
2
  0
LTYPE
  2
CONTINUOUS
  70
65
  3
Solid line
  72
65
  73
0
  40
0
  0
LTYPE
  2
DASHED
  70
65
  3
 _ _ _ _ _ _ _ _ _ _ _ _ _ _ _ _ _ _ _ _ _ _
  72
65
  73
2
  40
1.999999991808
  49
0.999999995904
  49
-0.999999995904
  0
ENDTAB
  0
TABLE
  2
LAYER
  70
1
  0
LAYER
  2
0
  70
0
  62
7
  6
CONTINUOUS
  0
ENDTAB
  0
ENDSEC
  0
SECTION
  2
BLOCKS
  0
ENDSEC
  0
SECTION
  2
ENTITIES
  0
CIRCLE
  8
0
  10
2.500100882432
  20
4.527365292032
  30
0
  40
0.124999999488
  0
CIRCLE
  8
0
  10
5.484176211968
  20
4.218667401216
  30
0
  40
0.046875000832
  0
CIRCLE
  8
0
  10
7.846569181184
  20
3.974282346496
  30
0
  40
0.046875000832
  0
CIRCLE
  8
0
  10
9.960289206272
  20
3.755621482496
  30
0
  40
0.046875000832
  0
CIRCLE
  8
0
  10
12.944364535808
  20
3.446924115968
  30
0
  40
0.046875000832
  0
CIRCLE
  8
0
  10
15.928439865344
  20
3.138226487296
  30
0
  40
0.046875000832
  0
CIRCLE
  8
0
  10
18.663843299328
  20
2.855253835776
  30
0
  40
0.046875000832
  0
CIRCLE
  8
0
  10
2.474933747712
  20
7.589761908736
  30
0
  40
0.124999999488
  0
CIRCLE
  8
0
  10
2.450280415232
  20
10.589660250112
  30
0
  40
0.124999999488
  0
CIRCLE
  8
0
  10
2.425627082752
  20
13.589559640064
  30
0
  40
0.124999999488
  0
CIRCLE
  8
0
  10
2.400973488128
  20
16.58945798144
  30
0
  40
0.124999999488
  0
CIRCLE
  8
0
  10
2.376320155648
  20
19.589356322816
  30
0
  40
0.124999999488
  0
CIRCLE
  8
0
  10
2.391184244736
  20
22.58935742464
  30
0
  40
0.124999999488
  0
CIRCLE
  8
0
  10
2.398246404096
  20
25.589274640384
  30
0
  40
0.124999999488
  0
CIRCLE
  8
0
  10
2.419702628352
  20
28.524872204288
  30
0
  40
0.124999999488
  0
CIRCLE
  8
0
  10
2.438887899136
  20
31.149801865216
  30
0
  40
0.124999999488
  0
CIRCLE
  8
0
  10
2.457616515072
  20
33.712234299392
  30
0
  40
0.124999999488
  0
CIRCLE
  8
0
  10
2.47497490432
  20
36.087170859008
  30
0
  40
0.124999999488
  0
CIRCLE
  8
0
  10
25.552358473728
  20
34.491645034496
  30
0
  40
0.046875000832
  0
CIRCLE
  8
0
  10
25.429347926016
  20
31.744396886016
  30
0
  40
0.046875000832
  0
CIRCLE
  8
0
  10
25.306524024832
  20
29.00133675008
  30
0
  40
0.046875000832
  0
CIRCLE
  8
0
  10
25.183700123648
  20
26.258278711296
  30
0
  40
0.046875000832
  0
CIRCLE
  8
0
  10
24.155946745856
  20
22.393959481344
  30
0
  40
0.046875000832
  0
CIRCLE
  8
0
  10
24.064282329088
  20
20.3960614912
  30
0
  40
0.046875000832
  0
CIRCLE
  8
0
  10
23.966890590208
  20
18.273294876672
  30
0
  40
0.046875000832
  0
CIRCLE
  8
0
  10
23.87542540288
  20
16.27968765952
  30
0
  40
0.046875000832
  0
CIRCLE
  8
0
  10
23.761042538496
  20
13.786608041984
  30
0
  40
0.046875000832
  0
CIRCLE
  8
0
  10
23.646663868416
  20
11.293527375872
  30
0
  40
0.046875000832
  0
CIRCLE
  8
0
  10
23.555196583936
  20
9.29992015872
  30
0
  40
0.046875000832
  0
CIRCLE
  8
0
  10
23.446545235968
  20
6.931707592704
  30
0
  40
0.046875000832
  0
LINE
  8
0
  10
20.249999038816
  20
1.999999969963
  30
0.025
  11
20.301557994233
  21
3.153181405933
  31
0.025
  0
ARC
  8
0
  10
21.300560658372
  20
3.108515701895
  30
0.025
  40
1
  50
87.44
  51
177.44
  0
LINE
  8
0
  10
21.345226858545
  20
4.107517933282
  30
0.025
  11
23.750000343334
  21
4.000000065736
  31
0.025
  0
LINE
  8
0
  10
23.75
  20
3.999999939926
  30
0.025
  11
24.599307634338
  21
22.985969574311
  31
0.025
  0
ARC
  8
0
  10
25.473433366911
  20
22.94686625323
  30
0.025
  40
0.875
  50
117.438670548575
  51
177.438670548575
  0
ARC
  8
0
  10
24.667033998985
  20
24.499999519408
  30
0.025
  40
0.875
  50
297.438670548575
  51
360.002561809382
  0
LINE
  8
0
  10
25.54203544076
  20
24.500037966751
  30
0.025
  11
25.542910476446
  21
24.499998843743
  31
0.025
  0
LINE
  8
0
  10
25.542910117803
  20
24.499999519408
  30
0.025
  11
26.124999670041
  21
37.499999519408
  31
0.025
  0
LINE
  8
0
  10
26.125000480592
  20
37.5
  30
0.025
  11
25.250000480592
  21
37.5
  31
0.025
  0
LINE
  8
0
  10
25.249999038816
  20
37.5
  30
0.025
  11
25.249999038816
  21
36.125
  31
0.025
  0
ARC
  8
0
  10
24.499999519408
  20
36.125000480592
  30
0.025
  40
0.75
  50
-180
  51
0
  0
LINE
  8
0
  10
23.75
  20
36.125000480592
  30
0.025
  11
23.75
  21
37.438471983182
  31
0.025
  0
LINE
  8
0
  10
23.75
  20
37.438472237174
  30
0.025
  11
16.25
  21
37.244171719039
  31
0.025
  0
LINE
  8
0
  10
16.25
  20
37.244171382874
  30
0.025
  11
16.25
  21
36.369144325907
  31
0.025
  0
ARC
  8
0
  10
15.812499279112
  20
35.838812880629
  30
0.025
  40
0.6875
  50
-116.570000000997
  51
50.478803641358
  0
LINE
  8
0
  10
15.504987821804
  20
35.223922128752
  30
0.025
  11
14.505094046859
  21
35.723869016225
  31
0.025
  0
ARC
  8
0
  10
14.812499519408
  20
36.33881336122
  30
0.025
  40
0.6875
  50
129.521196358642
  51
243.439897646841
  0
LINE
  8
0
  10
14.375
  20
36.869143989142
  30
0.025
  11
14.375
  21
37.195595916576
  31
0.025
  0
LINE
  8
0
  10
14.375
  20
37.195595568559
  30
0.025
  11
4.875
  21
36.949481578922
  31
0.025
  0
LINE
  8
0
  10
4.874999879852
  20
36.949482114296
  30
0.025
  11
4.874999879852
  21
34.625000249011
  31
0.025
  0
ARC
  8
0
  10
4.124999759704
  20
34.624999038816
  30
0.025
  40
0.75
  50
-180
  51
0
  0
LINE
  8
0
  10
3.374999639556
  20
34.624999038816
  30
0.025
  11
3.374999639556
  21
36.910620800474
  31
0.025
  0
LINE
  8
0
  10
3.374999639556
  20
36.910621462844
  30
0.025
  11
2.120620237345
  21
36.87812458714
  31
0.025
  0
LINE
  8
0
  10
2.120620397132
  20
36.87812384658
  30
0.025
  11
1.999999799344
  21
19.749998960627
  31
0.025
  0
LINE
  8
0
  10
1.999999819778
  20
19.749999759704
  30
0.025
  11
2.125101023427
  21
3.862146896316
  31
0.025
  0
LINE
  8
0
  10
2.125101014385
  20
3.862146993322
  30
0.025
  11
2.871173783215
  21
3.785495681456
  31
0.025
  0
ARC
  8
0
  10
3.777395233395
  20
2.998881302481
  30
0.025
  40
1.2
  50
29.226550712295
  51
139.041507004252
  0
LINE
  8
0
  10
4.824630557083
  20
3.58479807696
  30
0.025
  11
20.249999907544
  21
1.999999856022
  31
0.025
  0
LINE
  8
0
  10
-0.000000180222
  20
0.999999819778
  30
0
  11
-0.000000180222
  21
-0.000000180222
  31
0
  0
LINE
  8
0
  10
-0.000000180222
  20
0.999999819778
  30
0
  11
0.999999819778
  21
0.999999819778
  31
0
  0
LINE
  8
0
  10
0.999999819778
  20
-0.000000180222
  30
0
  11
0.999999819778
  21
0.999999819778
  31
0
  0
LINE
  8
0
  10
-0.000000180222
  20
-0.000000180222
  30
0
  11
0.999999819778
  21
-0.000000180222
  31
0
  0
TEXT
  8
0
  40
0.1
  72
0
  10
0.299212418203
  20
0.692913205605
  30
0
  1
1"x1"
  50
0
  0
TEXT
  8
0
  40
0.1
  72
0
  10
0.275590370959
  20
0.43307068592
  30
0
  1
scaling
  50
0
  0
TEXT
  8
0
  40
0.1
  72
0
  10
0.208661237101
  20
0.177165174109
  30
0
  1
reference
  50
0
  0
ENDSEC
  0
EOF
