  0
SECTION
  2
HEADER
  9
$ACADVER
  1
AC1009
  9
$MEASUREMENT
  70
0
  9
$INSUNITS
  70
1
  9
$DIMLFAC
  40
0.999999995904
  9
$INSBASE
  10
0.0
  20
0.0
  30
0.0
  9
$EXTMIN
  10
-0.000000330407
  20
0.000000120148
  9
$EXTMAX
  10
12.556690259968
  20
8.656250208256
  9
$LIMMIN
  10
-0.000000330407
  20
0.000000120148
  9
$LIMMAX
  10
12.556690259968
  20
8.656250208256
  9
$CLAYER
  8
0
  0
ENDSEC
  0
SECTION
  2
TABLES
  0
TABLE
  2
LTYPE
  70
2
  0
LTYPE
  2
CONTINUOUS
  70
65
  3
Solid line
  72
65
  73
0
  40
0
  0
LTYPE
  2
DASHED
  70
65
  3
 _ _ _ _ _ _ _ _ _ _ _ _ _ _ _ _ _ _ _ _ _ _
  72
65
  73
2
  40
1.999999991808
  49
0.999999995904
  49
-0.999999995904
  0
ENDTAB
  0
TABLE
  2
LAYER
  70
1
  0
LAYER
  2
0
  70
0
  62
7
  6
CONTINUOUS
  0
ENDTAB
  0
ENDSEC
  0
SECTION
  2
BLOCKS
  0
ENDSEC
  0
SECTION
  2
ENTITIES
  0
CIRCLE
  8
0
  10
2.292140998656
  20
2.472666464256
  30
0
  40
0.06424999936
  0
CIRCLE
  8
0
  10
2.666930110464
  20
3.399776468992
  30
0
  40
0.06424999936
  0
CIRCLE
  8
0
  10
3.041719484416
  20
4.326886735872
  30
0
  40
0.06424999936
  0
CIRCLE
  8
0
  10
5.77834582016
  20
8.406249766912
  30
0
  40
0.06424999936
  0
CIRCLE
  8
0
  10
7.278345322496
  20
8.406249766912
  30
0
  40
0.06424999936
  0
CIRCLE
  8
0
  10
7.278345322496
  20
3.906288746496
  30
0
  40
0.06424999936
  0
CIRCLE
  8
0
  10
5.780973551616
  20
3.906235006976
  30
0
  40
0.06424999936
  0
CIRCLE
  8
0
  10
3.057231593472
  20
2.691679649792
  30
0
  40
0.06424999936
  0
CIRCLE
  8
0
  10
3.682469412864
  20
3.105899675648
  30
0
  40
0.06424999936
  0
CIRCLE
  8
0
  10
4.307706707968
  20
3.520119701504
  30
0
  40
0.06424999936
  0
CIRCLE
  8
0
  10
12.264549646336
  20
2.472666464256
  30
0
  40
0.06424999936
  0
CIRCLE
  8
0
  10
11.889760272384
  20
3.399776468992
  30
0
  40
0.06424999936
  0
CIRCLE
  8
0
  10
11.514970898432
  20
4.326886735872
  30
0
  40
0.06424999936
  0
CIRCLE
  8
0
  10
8.778344824832
  20
8.406249766912
  30
0
  40
0.06424999936
  0
CIRCLE
  8
0
  10
8.775716569088
  20
3.906235006976
  30
0
  40
0.06424999936
  0
CIRCLE
  8
0
  10
11.499458265088
  20
2.691679649792
  30
0
  40
0.06424999936
  0
CIRCLE
  8
0
  10
10.87422070784
  20
3.105899675648
  30
0
  40
0.06424999936
  0
CIRCLE
  8
0
  10
10.248983150592
  20
3.520119701504
  30
0
  40
0.06424999936
  0
LINE
  8
0
  10
2.465845093014
  20
2.000000270333
  30
0.032
  11
4.913741968494
  21
3.621731950338
  31
0.032
  0
ARC
  8
0
  10
4.965845243199
  20
3.656250060074
  30
0.032
  40
0.0625
  50
0
  51
213.524473248578
  0
LINE
  8
0
  10
5.028345002903
  20
3.656250060074
  30
0.032
  11
9.528345002903
  21
3.656250060074
  31
0.032
  0
ARC
  8
0
  10
9.590845183125
  20
3.656250060074
  30
0.032
  40
0.0625
  50
-33.524473248578
  51
180
  0
LINE
  8
0
  10
9.642948541116
  20
3.621731855738
  30
0.032
  11
12.090845416596
  21
2.000000175732
  31
0.032
  0
LINE
  8
0
  10
12.090844582385
  20
2.000000270333
  30
0.032
  11
12.487591827821
  21
2.198373893051
  31
0.032
  0
ARC
  8
0
  10
12.431691087137
  20
2.310177209809
  30
0.032
  40
0.125
  50
296.565051177078
  51
382.01128319792
  0
LINE
  8
0
  10
12.547579787848
  20
2.357025897409
  30
0.032
  11
10.247438583811
  21
8.046848875816
  31
0.032
  0
ARC
  8
0
  10
10.13154998539
  20
8.000000480592
  30
0.032
  40
0.125
  50
22.011283197919
  51
90
  0
LINE
  8
0
  10
10.13154998539
  20
8.125
  30
0.032
  11
9.653345643429
  21
8.125
  31
0.032
  0
ARC
  8
0
  10
9.590845183125
  20
8.125
  30
0.032
  40
0.0625
  50
-247.988716802081
  51
0
  0
LINE
  8
0
  10
9.567420538955
  20
8.182944350355
  30
0.032
  11
9.4076773243
  21
8.578098618186
  31
0.032
  0
ARC
  8
0
  10
9.291788536733
  20
8.531250240296
  30
0.032
  40
0.125
  50
22.011283197919
  51
90
  0
LINE
  8
0
  10
9.291788536733
  20
8.656250360444
  30
0.032
  11
5.264901129406
  21
8.656250360444
  31
0.032
  0
ARC
  8
0
  10
5.264901589221
  20
8.531250240296
  30
0.032
  40
0.125
  50
90
  51
157.988716802081
  0
LINE
  8
0
  10
5.14901288851
  20
8.578098927896
  30
0.032
  11
4.989269673855
  21
8.182944660065
  31
0.032
  0
ARC
  8
0
  10
4.965845243199
  20
8.125
  30
0.032
  40
0.0625
  50
-180
  51
67.988716802081
  0
LINE
  8
0
  10
4.903345183125
  20
8.125
  30
0.032
  11
4.425140841163
  21
8.125
  31
0.032
  0
ARC
  8
0
  10
4.425140741303
  20
8.000000480592
  30
0.032
  40
0.125
  50
90
  51
157.988716802081
  0
LINE
  8
0
  10
4.309252040593
  20
8.046848567452
  30
0.032
  11
2.009110836556
  21
2.357025589045
  31
0.032
  0
ARC
  8
0
  10
2.124999639556
  20
2.310177209809
  30
0.032
  40
0.125
  50
157.98871680208
  51
243.434948822922
  0
LINE
  8
0
  10
2.069097954457
  20
2.198373839611
  30
0.032
  11
2.465845199893
  21
2.000000216893
  31
0.032
  0
LINE
  8
0
  10
-0.000000330407
  20
1.000000120148
  30
0
  11
-0.000000330407
  21
0.000000120148
  31
0
  0
LINE
  8
0
  10
-0.000000330407
  20
1.000000120148
  30
0
  11
0.999999669593
  21
1.000000120148
  31
0
  0
LINE
  8
0
  10
0.999999669593
  20
0.000000120148
  30
0
  11
0.999999669593
  21
1.000000120148
  31
0
  0
LINE
  8
0
  10
-0.000000330407
  20
0.000000120148
  30
0
  11
0.999999669593
  21
0.000000120148
  31
0
  0
TEXT
  8
0
  40
0.1
  72
0
  10
0.299212268018
  20
0.692913505975
  30
0
  1
1"x1"
  50
0
  0
TEXT
  8
0
  40
0.1
  72
0
  10
0.275590220774
  20
0.43307098629
  30
0
  1
scaling
  50
0
  0
TEXT
  8
0
  40
0.1
  72
0
  10
0.208661086916
  20
0.177165474479
  30
0
  1
reference
  50
0
  0
ENDSEC
  0
EOF
