  0
SECTION
  2
HEADER
  9
$ACADVER
  1
AC1009
  9
$MEASUREMENT
  70
0
  9
$INSUNITS
  70
1
  9
$DIMLFAC
  40
0.999999995904
  9
$INSBASE
  10
0.0
  20
0.0
  30
0.0
  9
$EXTMIN
  10
-0.000001081332
  20
0.000000120148
  9
$EXTMAX
  10
26.437497126912
  20
4.749999996928
  9
$LIMMIN
  10
-0.000001081332
  20
0.000000120148
  9
$LIMMAX
  10
26.437497126912
  20
4.749999996928
  9
$CLAYER
  8
0
  0
ENDSEC
  0
SECTION
  2
TABLES
  0
TABLE
  2
LTYPE
  70
2
  0
LTYPE
  2
CONTINUOUS
  70
65
  3
Solid line
  72
65
  73
0
  40
0
  0
LTYPE
  2
DASHED
  70
65
  3
 _ _ _ _ _ _ _ _ _ _ _ _ _ _ _ _ _ _ _ _ _ _
  72
65
  73
2
  40
1.999999991808
  49
0.999999995904
  49
-0.999999995904
  0
ENDTAB
  0
TABLE
  2
LAYER
  70
1
  0
LAYER
  2
0
  70
0
  62
7
  6
CONTINUOUS
  0
ENDTAB
  0
ENDSEC
  0
SECTION
  2
BLOCKS
  0
ENDSEC
  0
SECTION
  2
ENTITIES
  0
LINE
  8
0
  10
1.999998918668
  20
3.374999939926
  30
0.0625
  11
1.999998918668
  21
2.624999939926
  31
0.0625
  0
LINE
  8
0
  10
26.437498077633
  20
2.625000120148
  30
0.0625
  11
26.437498077633
  21
3.375000120148
  31
0.0625
  0
LINE
  8
0
  10
3.12499909889
  20
2.000000120148
  30
0.0625
  11
25.31249909889
  21
2.000000120148
  31
0.0625
  0
LINE
  8
0
  10
25.687498558225
  20
2.625000120148
  30
0
  11
26.437498558225
  21
2.625000120148
  31
0
  0
LINE
  8
0
  10
25.3125
  20
2.000000120148
  30
0
  11
25.3125
  21
2.250000120148
  31
0
  0
LINE
  8
0
  10
3.12499909889
  20
2.250000060074
  30
0
  11
3.12499909889
  21
2.000000060074
  31
0
  0
LINE
  8
0
  10
1.999998918668
  20
2.625000120148
  30
0
  11
2.749998918668
  21
2.625000120148
  31
0
  0
ARC
  8
0
  10
2.749999038816
  20
2.250000060074
  30
0
  40
0.375
  50
0
  51
90
  0
ARC
  8
0
  10
25.687498558225
  20
2.250000060074
  30
0
  40
0.375
  50
90
  51
180
  0
CIRCLE
  8
0
  10
2.374998978742
  20
3.374999939926
  30
0
  40
0.125
  0
CIRCLE
  8
0
  10
26.062499519408
  20
3.374999939926
  30
0
  40
0.125
  0
CIRCLE
  8
0
  10
14.218748798521
  20
3.374999939926
  30
0
  40
0.125
  0
CIRCLE
  8
0
  10
13.874999519408
  20
3.374999939926
  30
0
  40
0.049
  0
CIRCLE
  8
0
  10
14.562499279112
  20
3.374999939926
  30
0
  40
0.049
  0
CIRCLE
  8
0
  10
10.687498558225
  20
3.374999939926
  30
0
  40
0.125
  0
CIRCLE
  8
0
  10
10.343749279112
  20
3.374999939926
  30
0
  40
0.049
  0
CIRCLE
  8
0
  10
11.031249038816
  20
3.374999939926
  30
0
  40
0.049
  0
CIRCLE
  8
0
  10
7.156248918668
  20
3.374999939926
  30
0
  40
0.125
  0
CIRCLE
  8
0
  10
7.499998798521
  20
3.374999939926
  30
0
  40
0.049
  0
CIRCLE
  8
0
  10
6.812499038816
  20
3.374999939926
  30
0
  40
0.049
  0
CIRCLE
  8
0
  10
17.749999038816
  20
3.374999939926
  30
0
  40
0.125
  0
CIRCLE
  8
0
  10
17.406248558225
  20
3.374999939926
  30
0
  40
0.049
  0
CIRCLE
  8
0
  10
18.093749519408
  20
3.374999939926
  30
0
  40
0.049
  0
CIRCLE
  8
0
  10
21.281248077633
  20
3.374999939926
  30
0
  40
0.125
  0
CIRCLE
  8
0
  10
20.9375
  20
3.374999939926
  30
0
  40
0.049
  0
CIRCLE
  8
0
  10
21.624998558225
  20
3.374999939926
  30
0
  40
0.049
  0
CIRCLE
  8
0
  10
24.812499519408
  20
3.374999939926
  30
0
  40
0.125
  0
CIRCLE
  8
0
  10
24.468749038816
  20
3.374999939926
  30
0
  40
0.049
  0
CIRCLE
  8
0
  10
25.15625
  20
3.374999939926
  30
0
  40
0.049
  0
CIRCLE
  8
0
  10
3.624998978742
  20
3.374999939926
  30
0
  40
0.125
  0
CIRCLE
  8
0
  10
3.28124909889
  20
3.374999939926
  30
0
  40
0.049
  0
CIRCLE
  8
0
  10
3.968748858595
  20
3.374999939926
  30
0
  40
0.049
  0
ARC
  8
0
  10
25.687498558225
  20
4.500000120148
  30
0
  40
0.375
  50
180
  51
270
  0
LINE
  8
0
  10
25.687498558225
  20
4.125000060074
  30
0
  11
26.437498558225
  21
4.125000060074
  31
0
  0
LINE
  8
0
  10
1.999998918668
  20
4.125000060074
  30
0
  11
2.749998918668
  21
4.125000060074
  31
0
  0
ARC
  8
0
  10
2.749999038816
  20
4.500000120148
  30
0
  40
0.375
  50
270
  51
360
  0
LINE
  8
0
  10
3.12499909889
  20
4.500000120148
  30
0
  11
3.12499909889
  21
4.750000120148
  31
0
  0
LINE
  8
0
  10
1.999998918668
  20
3.374999939926
  30
0.0625
  11
1.999998918668
  21
4.124999939926
  31
0.0625
  0
LINE
  8
0
  10
26.437498077633
  20
4.125000060074
  30
0.0625
  11
26.437498077633
  21
3.375000060074
  31
0.0625
  0
LINE
  8
0
  10
3.12499909889
  20
4.750000060074
  30
0.0625
  11
25.31249909889
  21
4.750000060074
  31
0.0625
  0
LINE
  8
0
  10
25.3125
  20
4.500000120148
  30
0
  11
25.3125
  21
4.750000120148
  31
0
  0
LINE
  8
0
  10
-0.000001081332
  20
1.000000120148
  30
0
  11
-0.000001081332
  21
0.000000120148
  31
0
  0
LINE
  8
0
  10
-0.000001081332
  20
1.000000120148
  30
0
  11
0.999998918668
  21
1.000000120148
  31
0
  0
LINE
  8
0
  10
0.999998918668
  20
0.000000120148
  30
0
  11
0.999998918668
  21
1.000000120148
  31
0
  0
LINE
  8
0
  10
-0.000001081332
  20
0.000000120148
  30
0
  11
0.999998918668
  21
0.000000120148
  31
0
  0
TEXT
  8
0
  40
0.1
  72
0
  10
0.299211517094
  20
0.692913505975
  30
0
  1
1"x1"
  50
0
  0
TEXT
  8
0
  40
0.1
  72
0
  10
0.27558946985
  20
0.43307098629
  30
0
  1
scaling
  50
0
  0
TEXT
  8
0
  40
0.1
  72
0
  10
0.208660335991
  20
0.177165474479
  30
0
  1
reference
  50
0
  0
ENDSEC
  0
EOF
