  0
SECTION
  2
HEADER
  9
$ACADVER
  1
AC1009
  9
$MEASUREMENT
  70
0
  9
$INSUNITS
  70
1
  9
$DIMLFAC
  40
0.999999995904
  9
$INSBASE
  10
0.0
  20
0.0
  30
0.0
  9
$EXTMIN
  10
-0.000000630777
  20
-0.000000030037
  9
$EXTMAX
  10
26.187497734144
  20
4.999999913984
  9
$LIMMIN
  10
-0.000000630777
  20
-0.000000030037
  9
$LIMMAX
  10
26.187497734144
  20
4.999999913984
  9
$CLAYER
  8
0
  0
ENDSEC
  0
SECTION
  2
TABLES
  0
TABLE
  2
LTYPE
  70
2
  0
LTYPE
  2
CONTINUOUS
  70
65
  3
Solid line
  72
65
  73
0
  40
0
  0
LTYPE
  2
DASHED
  70
65
  3
 _ _ _ _ _ _ _ _ _ _ _ _ _ _ _ _ _ _ _ _ _ _
  72
65
  73
2
  40
1.999999991808
  49
0.999999995904
  49
-0.999999995904
  0
ENDTAB
  0
TABLE
  2
LAYER
  70
1
  0
LAYER
  2
0
  70
0
  62
7
  6
CONTINUOUS
  0
ENDTAB
  0
ENDSEC
  0
SECTION
  2
BLOCKS
  0
ENDSEC
  0
SECTION
  2
ENTITIES
  0
LINE
  8
0
  10
1.99999946752
  20
4.062500093952
  30
0.062499999744
  11
1.99999946752
  21
2.625000177664
  31
0.062499999744
  0
LINE
  8
0
  10
26.187497734144
  20
2.624999653376
  30
0.062499999744
  11
26.187497734144
  21
4.062499569664
  31
0.062499999744
  0
LINE
  8
0
  10
3.000249352192
  20
1.999999991808
  30
0.062499999744
  11
25.187250601984
  21
1.999999991808
  31
0.062499999744
  0
LINE
  8
0
  10
3.000249487209
  20
4.6875
  30
0.0625
  11
3.000249487209
  21
5
  31
0.0625
  0
LINE
  8
0
  10
3.000249487209
  20
5
  30
0.0625
  11
25.187249487209
  21
5
  31
0.0625
  0
LINE
  8
0
  10
25.187250572865
  20
5
  30
0.0625
  11
25.187250572865
  21
4.6875
  31
0.0625
  0
LINE
  8
0
  10
1.999999519408
  20
2.624999819778
  30
0.0625
  11
2.625249519408
  21
2.624999819778
  31
0.0625
  0
LINE
  8
0
  10
3.000249487209
  20
2.249999909889
  30
0.0625
  11
3.000249487209
  21
1.999999909889
  31
0.0625
  0
ARC
  8
0
  10
2.625249427135
  20
2.249999909889
  30
0.0625
  40
0.375
  50
0
  51
90
  0
LINE
  8
0
  10
25.56224913109
  20
2.624999819778
  30
0.0625
  11
26.18749913109
  21
2.624999819778
  31
0.0625
  0
LINE
  8
0
  10
25.187250572865
  20
1.999999969963
  30
0.0625
  11
25.187250572865
  21
2.249999969963
  31
0.0625
  0
ARC
  8
0
  10
25.56224913109
  20
2.249999909889
  30
0.0625
  40
0.375
  50
90
  51
180
  0
LINE
  8
0
  10
25.187250572865
  20
4.437500060074
  30
0.0625
  11
25.187250572865
  21
4.687500060074
  31
0.0625
  0
LINE
  8
0
  10
26.187499038816
  20
4.0625
  30
0.0625
  11
25.562249038816
  21
4.0625
  31
0.0625
  0
LINE
  8
0
  10
3.000249487209
  20
4.6875
  30
0.0625
  11
3.000249487209
  21
4.4375
  31
0.0625
  0
LINE
  8
0
  10
2.625249427135
  20
4.0625
  30
0.0625
  11
1.999999427135
  21
4.0625
  31
0.0625
  0
ARC
  8
0
  10
2.625249427135
  20
4.437500060074
  30
0.0625
  40
0.375
  50
270
  51
360
  0
ARC
  8
0
  10
25.56224913109
  20
4.437500060074
  30
0.0625
  40
0.375
  50
180
  51
270
  0
CIRCLE
  8
0
  10
2.312499519408
  20
3.343750060074
  30
0
  40
0.125
  0
CIRCLE
  8
0
  10
25.874999038816
  20
3.343750060074
  30
0
  40
0.125
  0
CIRCLE
  8
0
  10
10.812499279112
  20
3.343750060074
  30
0
  40
0.25
  0
CIRCLE
  8
0
  10
11.312499759704
  20
3.343750060074
  30
0
  40
0.06425
  0
CIRCLE
  8
0
  10
10.3125
  20
3.343750060074
  30
0
  40
0.06425
  0
CIRCLE
  8
0
  10
17.874999759704
  20
3.343750060074
  30
0
  40
0.06425
  0
CIRCLE
  8
0
  10
16.875
  20
3.343750060074
  30
0
  40
0.06425
  0
CIRCLE
  8
0
  10
17.374999279112
  20
3.343750060074
  30
0
  40
0.25
  0
CIRCLE
  8
0
  10
24.375
  20
3.343750060074
  30
0
  40
0.06425
  0
CIRCLE
  8
0
  10
23.374999038816
  20
3.343750060074
  30
0
  40
0.06425
  0
CIRCLE
  8
0
  10
23.874999519408
  20
3.343750060074
  30
0
  40
0.25
  0
CIRCLE
  8
0
  10
4.812499519408
  20
3.343750060074
  30
0
  40
0.06425
  0
CIRCLE
  8
0
  10
3.812499459334
  20
3.343750060074
  30
0
  40
0.06425
  0
CIRCLE
  8
0
  10
4.312499339186
  20
3.343750060074
  30
0
  40
0.25
  0
LINE
  8
0
  10
-0.000000630777
  20
0.999999969963
  30
0
  11
-0.000000630777
  21
-0.000000030037
  31
0
  0
LINE
  8
0
  10
-0.000000630777
  20
0.999999969963
  30
0
  11
0.999999369223
  21
0.999999969963
  31
0
  0
LINE
  8
0
  10
0.999999369223
  20
-0.000000030037
  30
0
  11
0.999999369223
  21
0.999999969963
  31
0
  0
LINE
  8
0
  10
-0.000000630777
  20
-0.000000030037
  30
0
  11
0.999999369223
  21
-0.000000030037
  31
0
  0
TEXT
  8
0
  40
0.1
  72
0
  10
0.299211967648
  20
0.69291335579
  30
0
  1
1"x1"
  50
0
  0
TEXT
  8
0
  40
0.1
  72
0
  10
0.275589920404
  20
0.433070836105
  30
0
  1
scaling
  50
0
  0
TEXT
  8
0
  40
0.1
  72
0
  10
0.208660786546
  20
0.177165324294
  30
0
  1
reference
  50
0
  0
ENDSEC
  0
EOF
