  0
SECTION
  2
HEADER
  9
$ACADVER
  1
AC1009
  9
$MEASUREMENT
  70
0
  9
$INSUNITS
  70
1
  9
$DIMLFAC
  40
0.999999995904
  9
$INSBASE
  10
0.0
  20
0.0
  30
0.0
  9
$EXTMIN
  10
0.000000270333
  20
-0.000000030037
  9
$EXTMAX
  10
22.499999875072
  20
26.284300173312
  9
$LIMMIN
  10
0.000000270333
  20
-0.000000030037
  9
$LIMMAX
  10
22.499999875072
  20
26.284300173312
  9
$CLAYER
  8
0
  0
ENDSEC
  0
SECTION
  2
TABLES
  0
TABLE
  2
LTYPE
  70
2
  0
LTYPE
  2
CONTINUOUS
  70
65
  3
Solid line
  72
65
  73
0
  40
0
  0
LTYPE
  2
DASHED
  70
65
  3
 _ _ _ _ _ _ _ _ _ _ _ _ _ _ _ _ _ _ _ _ _ _
  72
65
  73
2
  40
1.999999991808
  49
0.999999995904
  49
-0.999999995904
  0
ENDTAB
  0
TABLE
  2
LAYER
  70
1
  0
LAYER
  2
0
  70
0
  62
7
  6
CONTINUOUS
  0
ENDTAB
  0
ENDSEC
  0
SECTION
  2
BLOCKS
  0
ENDSEC
  0
SECTION
  2
ENTITIES
  0
CIRCLE
  8
0
  10
20.500000538624
  20
16.767148621824
  30
0
  40
0.999999995904
  0
CIRCLE
  8
0
  10
22.250002579456
  20
14.14214975488
  30
0
  40
0.078124998656
  0
CIRCLE
  8
0
  10
22.250002579456
  20
16.64214892544
  30
0
  40
0.078124998656
  0
CIRCLE
  8
0
  10
22.250002579456
  20
11.642149535744
  30
0
  40
0.078124998656
  0
CIRCLE
  8
0
  10
22.250002579456
  20
9.142150365184
  30
0
  40
0.078124998656
  0
CIRCLE
  8
0
  10
22.250002579456
  20
19.142149144576
  30
0
  40
0.078124998656
  0
CIRCLE
  8
0
  10
22.250002579456
  20
6.892149538816
  30
0
  40
0.078124998656
  0
CIRCLE
  8
0
  10
22.250002579456
  20
21.392147873792
  30
0
  40
0.078124998656
  0
CIRCLE
  8
0
  10
22.250002579456
  20
23.642150797312
  30
0
  40
0.078124998656
  0
CIRCLE
  8
0
  10
22.250002579456
  20
4.642149236736
  30
0
  40
0.078124998656
  0
LINE
  8
0
  10
3.75000030037
  20
1.999999969963
  30
0.025
  11
21.18750030037
  21
2.45188640289
  31
0.025
  0
LINE
  8
0
  10
21.187501441775
  20
2.451886454905
  30
0.025
  11
21.187501441775
  21
3.610899412222
  31
0.025
  0
ARC
  8
0
  10
21.5625
  20
3.610899316983
  30
0.025
  40
0.375
  50
90
  51
180
  0
LINE
  8
0
  10
21.5625
  20
3.985899377057
  30
0.025
  11
22.5
  21
3.985899377057
  31
0.025
  0
LINE
  8
0
  10
22.5
  20
3.985899377057
  30
0.025
  11
22.5
  21
24.298399377057
  31
0.025
  0
LINE
  8
0
  10
22.5
  20
24.298398475947
  30
0.025
  11
21.5625
  21
24.298398475947
  31
0.025
  0
ARC
  8
0
  10
21.5625
  20
24.673399437131
  30
0.025
  40
0.375
  50
180
  51
270
  0
LINE
  8
0
  10
21.187501441775
  20
24.673399437131
  30
0.025
  11
21.187501441775
  21
25.832412394448
  31
0.025
  0
LINE
  8
0
  10
21.187501441775
  20
25.832411398099
  30
0.025
  11
3.750001441775
  21
26.284297831026
  31
0.025
  0
LINE
  8
0
  10
3.75000030037
  20
26.284299835445
  30
0.025
  11
3.75000030037
  21
23.954150445201
  31
0.025
  0
ARC
  8
0
  10
3.375000240296
  20
23.954150582862
  30
0.025
  40
0.375
  50
-90
  51
0
  0
LINE
  8
0
  10
3.375000240296
  20
23.579149621678
  30
0.025
  11
2.000000240296
  21
23.579149621678
  31
0.025
  0
LINE
  8
0
  10
2.000000270333
  20
23.579149621678
  30
0.025
  11
2.000000270333
  21
4.705149621678
  31
0.025
  0
LINE
  8
0
  10
2.000000270333
  20
4.705149432806
  30
0.025
  11
3.375000270333
  21
4.705149432806
  31
0.025
  0
ARC
  8
0
  10
3.375000240296
  20
4.330149372732
  30
0.025
  40
0.375
  50
0
  51
90
  0
LINE
  8
0
  10
3.75000030037
  20
4.330149372732
  30
0.025
  11
3.75000030037
  21
1.999999982488
  31
0.025
  0
LINE
  8
0
  10
0.000000270333
  20
0.999999969963
  30
0
  11
0.000000270333
  21
-0.000000030037
  31
0
  0
LINE
  8
0
  10
0.000000270333
  20
0.999999969963
  30
0
  11
1.000000270333
  21
0.999999969963
  31
0
  0
LINE
  8
0
  10
1.000000270333
  20
-0.000000030037
  30
0
  11
1.000000270333
  21
0.999999969963
  31
0
  0
LINE
  8
0
  10
0.000000270333
  20
-0.000000030037
  30
0
  11
1.000000270333
  21
-0.000000030037
  31
0
  0
TEXT
  8
0
  40
0.1
  72
0
  10
0.299212868758
  20
0.69291335579
  30
0
  1
1"x1"
  50
0
  0
TEXT
  8
0
  40
0.1
  72
0
  10
0.275590821514
  20
0.433070836105
  30
0
  1
scaling
  50
0
  0
TEXT
  8
0
  40
0.1
  72
0
  10
0.208661687656
  20
0.177165324294
  30
0
  1
reference
  50
0
  0
ENDSEC
  0
EOF
