  0
SECTION
  2
HEADER
  9
$ACADVER
  1
AC1009
  9
$MEASUREMENT
  70
0
  9
$INSUNITS
  70
1
  9
$DIMLFAC
  40
0.999999995904
  9
$INSBASE
  10
0.0
  20
0.0
  30
0.0
  9
$EXTMIN
  10
-0.000000780962
  20
-0.000000030037
  9
$EXTMAX
  10
13.360853680128
  20
5.499999748096
  9
$LIMMIN
  10
-0.000000780962
  20
-0.000000030037
  9
$LIMMAX
  10
13.360853680128
  20
5.499999748096
  9
$CLAYER
  8
0
  0
ENDSEC
  0
SECTION
  2
TABLES
  0
TABLE
  2
LTYPE
  70
2
  0
LTYPE
  2
CONTINUOUS
  70
65
  3
Solid line
  72
65
  73
0
  40
0
  0
LTYPE
  2
DASHED
  70
65
  3
 _ _ _ _ _ _ _ _ _ _ _ _ _ _ _ _ _ _ _ _ _ _
  72
65
  73
2
  40
1.999999991808
  49
0.999999995904
  49
-0.999999995904
  0
ENDTAB
  0
TABLE
  2
LAYER
  70
1
  0
LAYER
  2
0
  70
0
  62
7
  6
CONTINUOUS
  0
ENDTAB
  0
ENDSEC
  0
SECTION
  2
BLOCKS
  0
ENDSEC
  0
SECTION
  2
ENTITIES
  0
LINE
  8
0
  10
13.34634872832
  20
4.82367504384
  30
0
  11
13.10498226176
  21
5.111324606464
  31
0
  0
ARC
  8
0
  10
9.992926134272
  20
2.499999956992
  30
0
  40
0.124999999488
  50
39.999999311872
  51
130.000003006464
  0
ARC
  8
0
  10
9.992926134272
  20
5.062499762176
  30
0
  40
0.062499999744
  50
89.999999500288
  51
440.000005013504
  0
CIRCLE
  8
0
  10
7.680426508288
  20
2.250000039936
  30
0
  40
0.06424999936
  0
CIRCLE
  8
0
  10
9.055426838528
  20
2.250000039936
  30
0
  40
0.06424999936
  0
CIRCLE
  8
0
  10
13.08187164672
  20
4.84716838912
  30
0
  40
0.06424999936
  0
LINE
  8
0
  10
9.992926134272
  20
5.125000134656
  30
0
  11
9.992926134272
  21
5.437999546368
  31
0
  0
LINE
  8
0
  10
9.93092698112
  20
5.499999748096
  30
0
  11
7.680426508288
  21
5.499999748096
  31
0
  0
LINE
  8
0
  10
10.128733503488
  20
5.492486701056
  30
0
  11
13.10498226176
  21
5.111324606464
  31
0
  0
LINE
  8
0
  10
10.003778895872
  20
5.1240501248
  30
0
  11
10.059800117248
  21
5.441755021312
  31
0
  0
LINE
  8
0
  10
7.680426508288
  20
1.999999991808
  30
0
  11
9.180018638848
  21
1.999999991808
  31
0
  0
LINE
  8
0
  10
9.219870818304
  20
2.014505336832
  30
0
  11
9.912577949696
  21
2.595755655168
  31
0
  0
LINE
  8
0
  10
10.330048561152
  20
2.292698578944
  30
0
  11
10.088682094592
  21
2.580348141568
  31
0
  0
LINE
  8
0
  10
10.417395990528
  20
2.2850568192
  30
0
  11
13.338706706432
  21
4.736327614464
  31
0
  0
LINE
  8
0
  10
13.34634872832
  20
4.82367504384
  30
0
  11
13.225504538624
  21
4.967691190272
  31
0
  0
ARC
  8
0
  10
13.2988534784
  20
4.783821815808
  30
0
  40
0.061999996928
  50
-50.000000188416
  51
39.999999311872
  0
ARC
  8
0
  10
10.377543811072
  20
2.332551806976
  30
0
  40
0.061999996928
  50
220.000002506752
  51
310.00000200704
  0
ARC
  8
0
  10
9.180018638848
  20
2.062000062464
  30
0
  40
0.061999996928
  50
269.999998500864
  51
310.00000200704
  0
ARC
  8
0
  10
10.120857649152
  20
5.43098929152
  30
0
  40
0.061999996928
  50
82.701960871936
  51
170.00000651264
  0
ARC
  8
0
  10
9.93092698112
  20
5.437999546368
  30
0
  40
0.061999996928
  50
0
  51
89.999999500288
  0
LINE
  8
0
  10
2.014504419328
  20
4.82367504384
  30
0
  11
2.255871279104
  21
5.111324606464
  31
0
  0
ARC
  8
0
  10
5.367926358016
  20
2.499999956992
  30
0
  40
0.124999999488
  50
50.000000188416
  51
139.9999954944
  0
ARC
  8
0
  10
5.367926358016
  20
5.062499762176
  30
0
  40
0.062499999744
  50
-260.000006012928
  51
89.999999500288
  0
CIRCLE
  8
0
  10
7.680426508288
  20
2.250000039936
  30
0
  40
0.06424999936
  0
CIRCLE
  8
0
  10
6.305426702336
  20
2.250000039936
  30
0
  40
0.06424999936
  0
CIRCLE
  8
0
  10
2.278981894144
  20
4.84716838912
  30
0
  40
0.06424999936
  0
LINE
  8
0
  10
5.367926358016
  20
5.125000134656
  30
0
  11
5.367926358016
  21
5.437999546368
  31
0
  0
LINE
  8
0
  10
5.429926559744
  20
5.499999748096
  30
0
  11
7.680426508288
  21
5.499999748096
  31
0
  0
LINE
  8
0
  10
5.232120037376
  20
5.492486701056
  30
0
  11
2.255871279104
  21
5.111324606464
  31
0
  0
LINE
  8
0
  10
5.357073596416
  20
5.1240501248
  30
0
  11
5.301053423616
  21
5.441755021312
  31
0
  0
LINE
  8
0
  10
7.680426508288
  20
1.999999991808
  30
0
  11
6.180835426304
  21
1.999999991808
  31
0
  0
LINE
  8
0
  10
6.14098272256
  20
2.014505336832
  30
0
  11
5.448275591168
  21
2.595755655168
  31
0
  0
LINE
  8
0
  10
5.030804455424
  20
2.292698578944
  30
0
  11
5.272170921984
  21
2.580348141568
  31
0
  0
LINE
  8
0
  10
4.94345650176
  20
2.2850568192
  30
0
  11
2.022146441216
  21
4.736327614464
  31
0
  0
LINE
  8
0
  10
2.014504419328
  20
4.82367504384
  30
0
  11
2.135348609024
  21
4.967691190272
  31
0
  0
ARC
  8
0
  10
2.061999013888
  20
4.783821815808
  30
0
  40
0.061999996928
  50
139.9999954944
  51
229.999994994688
  0
ARC
  8
0
  10
4.983309729792
  20
2.332551806976
  30
0
  40
0.061999996928
  50
229.999994994688
  51
319.999994494976
  0
ARC
  8
0
  10
6.180835426304
  20
2.062000062464
  30
0
  40
0.061999996928
  50
229.999994994688
  51
269.999998500864
  0
ARC
  8
0
  10
5.239995367424
  20
5.43098929152
  30
0
  40
0.061999996928
  50
9.999999827968
  51
97.29803812864
  0
ARC
  8
0
  10
5.429926559744
  20
5.437999546368
  30
0
  40
0.061999996928
  50
89.999999500288
  51
179.999999000576
  0
LINE
  8
0
  10
-0.000000780962
  20
0.999999995904
  30
0
  11
-0.000000780962
  21
0
  31
0
  0
LINE
  8
0
  10
-0.000000780962
  20
0.999999995904
  30
0
  11
0.999999209472
  21
0.999999995904
  31
0
  0
LINE
  8
0
  10
0.999999209472
  20
-0.000000030037
  30
0
  11
0.999999209472
  21
0.999999995904
  31
0
  0
LINE
  8
0
  10
-0.000000780962
  20
-0.000000030037
  30
0
  11
0.999999209472
  21
-0.000000030037
  31
0
  0
TEXT
  8
0
  40
0.099999997952
  72
0
  10
0.29921181696
  20
0.692913373184
  30
0
  1
1"x1"
  50
0
  0
TEXT
  8
0
  40
0.099999997952
  72
0
  10
0.275589758976
  20
0.433070833664
  30
0
  1
scaling
  50
0
  0
TEXT
  8
0
  40
0.099999997952
  72
0
  10
0.208660627456
  20
0.177165320192
  30
0
  1
reference
  50
0
  0
ENDSEC
  0
EOF
