  0
SECTION
  2
HEADER
  9
$ACADVER
  1
AC1009
  9
$MEASUREMENT
  70
0
  9
$INSUNITS
  70
1
  9
$DIMLFAC
  40
0.999999995904
  9
$INSBASE
  10
0.0
  20
0.0
  30
0.0
  9
$EXTMIN
  10
1.999999991808
  20
1.999999598592
  9
$EXTMAX
  10
10.500000710656
  20
4.500001652736
  9
$LIMMIN
  10
1.999999991808
  20
1.999999598592
  9
$LIMMAX
  10
10.500000710656
  20
4.500001652736
  9
$CLAYER
  8
0
  0
ENDSEC
  0
SECTION
  2
TABLES
  0
TABLE
  2
LTYPE
  70
2
  0
LTYPE
  2
CONTINUOUS
  70
65
  3
Solid line
  72
65
  73
0
  40
0
  0
LTYPE
  2
DASHED
  70
65
  3
 _ _ _ _ _ _ _ _ _ _ _ _ _ _ _ _ _ _ _ _ _ _
  72
65
  73
2
  40
1.999999991808
  49
0.999999995904
  49
-0.999999995904
  0
ENDTAB
  0
TABLE
  2
LAYER
  70
1
  0
LAYER
  2
0
  70
0
  62
7
  6
CONTINUOUS
  0
ENDTAB
  0
ENDSEC
  0
SECTION
  2
BLOCKS
  0
ENDSEC
  0
SECTION
  2
ENTITIES
  0
LINE
  8
0
  10
9.499999993856
  20
4.50000060416
  30
0
  11
7.250000216064
  21
4.50000060416
  31
0
  0
CIRCLE
  8
0
  10
9.062499483648
  20
4.25000042496
  30
0
  40
0.10937499648
  0
CIRCLE
  8
0
  10
7.249999691776
  20
4.25000042496
  30
0
  40
0.10937499648
  0
LINE
  8
0
  10
2.999999791104
  20
4.50000060416
  30
0
  11
5.249999306752
  21
4.50000060416
  31
0
  0
CIRCLE
  8
0
  10
3.437500039168
  20
4.25000042496
  30
0
  40
0.10937499648
  0
CIRCLE
  8
0
  10
5.249999306752
  20
4.25000042496
  30
0
  40
0.10937499648
  0
LINE
  8
0
  10
9.499999993856
  20
2.000000516096
  30
0
  11
7.250000216064
  21
2.000000516096
  31
0
  0
CIRCLE
  8
0
  10
9.062499483648
  20
2.250000564224
  30
0
  40
0.10937499648
  0
CIRCLE
  8
0
  10
7.249999691776
  20
2.250000564224
  30
0
  40
0.10937499648
  0
LINE
  8
0
  10
2.999999791104
  20
2.000000516096
  30
0
  11
5.249999306752
  21
2.000000516096
  31
0
  0
CIRCLE
  8
0
  10
3.437500039168
  20
2.250000564224
  30
0
  40
0.10937499648
  0
CIRCLE
  8
0
  10
5.249999306752
  20
2.250000564224
  30
0
  40
0.10937499648
  0
LINE
  8
0
  10
2.999999791104
  20
2.000000516096
  30
0.062499999744
  11
6.250000023552
  21
2.000000516096
  31
0.062499999744
  0
LINE
  8
0
  10
9.499999993856
  20
2.000000516096
  30
0.062499999744
  11
6.250000023552
  21
2.000000516096
  31
0.062499999744
  0
LINE
  8
0
  10
9.999999827968
  20
2.437501157376
  30
0.062499999744
  11
9.999999827968
  21
2.000001171456
  31
0.062499999744
  0
ARC
  8
0
  10
9.999999827968
  20
2.500001267712
  30
0.062499999744
  40
0.062499999744
  50
0
  51
269.999998500864
  0
LINE
  8
0
  10
10.062500200448
  20
2.500001267712
  30
0.062499999744
  11
10.499998613504
  21
2.500001267712
  31
0.062499999744
  0
LINE
  8
0
  10
10.500000710656
  20
3.25000101888
  30
0.062499999744
  11
10.500000710656
  21
2.500001005568
  31
0.062499999744
  0
LINE
  8
0
  10
10.500000710656
  20
3.25000101888
  30
0.062499999744
  11
10.500000710656
  21
4.000001032192
  31
0.062499999744
  0
LINE
  8
0
  10
10.062500200448
  20
4.000001032192
  30
0.062499999744
  11
10.499998613504
  21
4.000001032192
  31
0.062499999744
  0
ARC
  8
0
  10
9.999999827968
  20
4.000001032192
  30
0.062499999744
  40
0.062499999744
  50
89.999999500288
  51
359.999998001152
  0
LINE
  8
0
  10
9.999999827968
  20
4.062501404672
  30
0.062499999744
  11
9.999999827968
  21
4.500001652736
  31
0.062499999744
  0
LINE
  8
0
  10
9.499999993856
  20
4.50000060416
  30
0.062499999744
  11
6.250000023552
  21
4.50000060416
  31
0.062499999744
  0
LINE
  8
0
  10
2.999999791104
  20
4.50000060416
  30
0.062499999744
  11
6.250000023552
  21
4.50000060416
  31
0.062499999744
  0
LINE
  8
0
  10
2.499999694848
  20
4.062499569664
  30
0.062499999744
  11
2.499999694848
  21
4.500000079872
  31
0.062499999744
  0
ARC
  8
0
  10
2.499999694848
  20
3.999999459328
  30
0.062499999744
  40
0.062499999744
  50
179.999999000576
  51
449.99999750144
  0
LINE
  8
0
  10
2.4375001088
  20
3.999999459328
  30
0.062499999744
  11
1.999999991808
  21
3.999999459328
  31
0.062499999744
  0
LINE
  8
0
  10
1.999999991808
  20
3.249999446016
  30
0.062499999744
  11
1.999999991808
  21
3.999999459328
  31
0.062499999744
  0
LINE
  8
0
  10
1.999999991808
  20
3.249999446016
  30
0.062499999744
  11
1.999999991808
  21
2.499999432704
  31
0.062499999744
  0
LINE
  8
0
  10
2.4375001088
  20
2.499999432704
  30
0.062499999744
  11
1.999999991808
  21
2.499999432704
  31
0.062499999744
  0
ARC
  8
0
  10
2.499999694848
  20
2.499999432704
  30
0.062499999744
  40
0.062499999744
  50
269.999998500864
  51
539.999997001728
  0
LINE
  8
0
  10
2.499999694848
  20
2.437499584512
  30
0.062499999744
  11
2.499999694848
  21
1.999999598592
  31
0.062499999744
  0
LINE
  8
0
  10
2.999999791104
  20
4.50000060416
  30
0
  11
2.499999694848
  21
4.499999555584
  31
0
  0
LINE
  8
0
  10
2.999999791104
  20
2.000000516096
  30
0
  11
2.499999694848
  21
1.999999598592
  31
0
  0
LINE
  8
0
  10
9.999999827968
  20
4.500001128448
  30
0
  11
9.499999993856
  21
4.500000079872
  31
0
  0
LINE
  8
0
  10
9.999999827968
  20
2.000001171456
  30
0
  11
9.499999993856
  21
2.000000516096
  31
0
  0
ENDSEC
  0
EOF
