  0
SECTION
  2
HEADER
  9
$ACADVER
  1
AC1009
  9
$MEASUREMENT
  70
0
  9
$INSUNITS
  70
1
  9
$DIMLFAC
  40
0.999999995904
  9
$INSBASE
  10
0.0
  20
0.0
  30
0.0
  9
$EXTMIN
  10
1.999999598592
  20
2.000000516096
  9
$EXTMAX
  10
13.055152881664
  20
11.312501358592
  9
$LIMMIN
  10
1.999999598592
  20
2.000000516096
  9
$LIMMAX
  10
13.055152881664
  20
11.312501358592
  9
$CLAYER
  8
0
  0
ENDSEC
  0
SECTION
  2
TABLES
  0
TABLE
  2
LTYPE
  70
2
  0
LTYPE
  2
CONTINUOUS
  70
65
  3
Solid line
  72
65
  73
0
  40
0
  0
LTYPE
  2
DASHED
  70
65
  3
 _ _ _ _ _ _ _ _ _ _ _ _ _ _ _ _ _ _ _ _ _ _
  72
65
  73
2
  40
1.999999991808
  49
0.999999995904
  49
-0.999999995904
  0
ENDTAB
  0
TABLE
  2
LAYER
  70
1
  0
LAYER
  2
0
  70
0
  62
7
  6
CONTINUOUS
  0
ENDTAB
  0
ENDSEC
  0
SECTION
  2
BLOCKS
  0
ENDSEC
  0
SECTION
  2
ENTITIES
  0
LINE
  8
0
  10
5.836223021056
  20
2.875000356864
  30
0
  11
5.113086738432
  21
3.736800067584
  31
0
  0
CIRCLE
  8
0
  10
5.836223021056
  20
3.736800067584
  30
0
  40
0.094499995648
  0
LINE
  8
0
  10
3.232849461248
  20
10.812500475904
  30
0
  11
4.170349543424
  21
10.812500475904
  31
0
  0
LINE
  8
0
  10
7.920349609984
  20
10.812500475904
  30
0
  11
8.857849954304
  21
10.812500475904
  31
0
  0
LINE
  8
0
  10
5.113086738432
  20
3.736800067584
  30
0
  11
5.836223021056
  21
2.875000356864
  31
0
  0
LINE
  8
0
  10
5.836223021056
  20
2.875000356864
  30
0
  11
6.211222634496
  21
2.875000356864
  31
0
  0
CIRCLE
  8
0
  10
10.39872294912
  20
4.25000042496
  30
0
  40
0.375000006656
  0
LINE
  8
0
  10
10.398722971518
  20
2.875000360444
  30
0
  11
12.211222971518
  21
2.875000360444
  31
0
  0
LINE
  8
0
  10
12.211223211814
  20
2.875000360444
  30
0
  11
13.055153125841
  21
3.7800043937
  31
0
  0
LINE
  8
0
  10
13.055153193436
  20
3.780004546398
  30
0
  11
12.95035365758
  21
6.781070599115
  31
0
  0
LINE
  8
0
  10
12.950352946604
  20
6.781070739266
  30
0
  11
12.045348913348
  21
7.625000653293
  31
0
  0
LINE
  8
0
  10
12.04534936139
  20
7.625000120148
  30
0
  11
8.85784936139
  21
10.812500120148
  31
0
  0
LINE
  8
0
  10
8.857849601686
  20
10.812500480592
  30
0
  11
7.920349601686
  21
10.812500480592
  31
0
  0
LINE
  8
0
  10
7.920349601686
  20
10.812500480592
  30
0
  11
7.420349601686
  21
11.312500480592
  31
0
  0
LINE
  8
0
  10
7.420349721833
  20
11.312500961184
  30
0
  11
4.670349721833
  21
11.312500961184
  31
0
  0
LINE
  8
0
  10
4.670349481538
  20
11.312500961184
  30
0
  11
4.170349481538
  21
10.812500961184
  31
0
  0
LINE
  8
0
  10
4.170349601686
  20
10.812500480592
  30
0
  11
3.232849601686
  21
10.812500480592
  31
0
  0
LINE
  8
0
  10
3.232849601686
  20
10.812500480592
  30
0
  11
2.107849601686
  21
9.687500480592
  31
0
  0
LINE
  8
0
  10
2.107849421464
  20
9.68750060074
  30
0
  11
2.107849421464
  21
7.31250060074
  31
0
  0
LINE
  8
0
  10
2.107849421464
  20
7.312500120148
  30
0
  11
1.99999969221
  21
6.079772073943
  31
0
  0
LINE
  8
0
  10
1.999999819778
  20
6.079772588775
  30
0
  11
3.880359097015
  21
3.844650362742
  31
0
  0
LINE
  8
0
  10
3.880359018881
  20
3.844650148407
  30
0
  11
5.113087065086
  21
3.736800419153
  31
0
  0
LINE
  8
0
  10
5.113086850624
  20
3.736800246351
  30
0
  11
5.836222911522
  21
2.875000247842
  31
0
  0
LINE
  8
0
  10
5.836223091666
  20
2.875000360444
  30
0
  11
6.211223091666
  21
2.875000360444
  31
0
  0
LINE
  8
0
  10
6.21122285137
  20
2.875000360444
  30
0
  11
7.08622285137
  21
2.000000360444
  31
0
  0
LINE
  8
0
  10
7.086223091666
  20
2.000000420518
  30
0
  11
10.398723091666
  21
2.000000420518
  31
0
  0
LINE
  8
0
  10
10.398722971518
  20
2.000000420518
  30
0
  11
10.398722971518
  21
2.875000420518
  31
0
  0
ARC
  8
0
  10
3.346164733406
  20
6.867233036071
  30
0
  40
0.25
  50
128.5
  51
308.5
  0
ARC
  8
0
  10
5.836223091666
  20
3.736800246351
  30
0
  40
3.75
  50
51.5
  51
128.5
  0
ARC
  8
0
  10
8.326281449926
  20
6.867233036071
  30
0
  40
0.25
  50
231.5
  51
411.5
  0
ARC
  8
0
  10
5.836223091666
  20
3.736800246351
  30
0
  40
4.25
  50
51.5
  51
128.5
  0
ENDSEC
  0
EOF
