  0
SECTION
  2
HEADER
  9
$ACADVER
  1
AC1009
  9
$MEASUREMENT
  70
0
  9
$INSUNITS
  70
1
  9
$DIMLFAC
  40
0.999999995904
  9
$INSBASE
  10
0.0
  20
0.0
  30
0.0
  9
$EXTMIN
  10
0.000000270333
  20
0.000000120148
  9
$EXTMAX
  10
10.218695032832
  20
8.705081868288
  9
$LIMMIN
  10
0.000000270333
  20
0.000000120148
  9
$LIMMAX
  10
10.218695032832
  20
8.705081868288
  9
$CLAYER
  8
0
  0
ENDSEC
  0
SECTION
  2
TABLES
  0
TABLE
  2
LTYPE
  70
2
  0
LTYPE
  2
CONTINUOUS
  70
65
  3
Solid line
  72
65
  73
0
  40
0
  0
LTYPE
  2
DASHED
  70
65
  3
 _ _ _ _ _ _ _ _ _ _ _ _ _ _ _ _ _ _ _ _ _ _
  72
65
  73
2
  40
1.999999991808
  49
0.999999995904
  49
-0.999999995904
  0
ENDTAB
  0
TABLE
  2
LAYER
  70
1
  0
LAYER
  2
0
  70
0
  62
7
  6
CONTINUOUS
  0
ENDTAB
  0
ENDSEC
  0
SECTION
  2
BLOCKS
  0
ENDSEC
  0
SECTION
  2
ENTITIES
  0
CIRCLE
  8
0
  10
8.968694923264
  20
6.374999719936
  30
0
  40
0.187500003328
  0
CIRCLE
  8
0
  10
6.087672070144
  20
7.65771382784
  30
0
  40
0.187500003328
  0
ARC
  8
0
  10
4.653859776775
  20
2.711789288859
  30
0.05
  40
0.0625
  50
-24
  51
132
  0
LINE
  8
0
  10
4.710956183006
  20
2.686368086207
  30
0.05
  11
4.767824387744
  21
2.661048730175
  31
0.05
  0
ARC
  8
0
  10
5.452983585868
  20
2.355996379702
  30
0.05
  40
0.75
  50
-24
  51
156
  0
LINE
  8
0
  10
6.138142863597
  20
2.050943900281
  30
0.05
  11
6.195011068335
  21
2.02562454425
  31
0.05
  0
ARC
  8
0
  10
6.252107394962
  20
2.000203470545
  30
0.05
  40
0.0625
  50
-0.186434673163
  51
156
  0
LINE
  8
0
  10
6.314607154666
  20
2.000000120148
  30
0.05
  11
9.656194958705
  21
2.000000120148
  31
0.05
  0
ARC
  8
0
  10
9.718695212537
  20
2.000000120148
  30
0.05
  40
0.0625
  50
0
  51
179.999999999999
  0
LINE
  8
0
  10
9.781194972241
  20
2.000000120148
  30
0.05
  11
10.218694972241
  21
2.000000120148
  31
0.05
  0
LINE
  8
0
  10
10.218694491649
  20
2.000000120148
  30
0.05
  11
10.218694491649
  21
6.552000120148
  31
0.05
  0
LINE
  8
0
  10
10.218694491649
  20
6.552000271054
  30
0.05
  11
9.781194129833
  21
6.552000271054
  31
0.05
  0
ARC
  8
0
  10
9.718695212537
  20
6.552212932917
  30
0.05
  40
0.0625
  50
154.189881336766
  51
359.805041514392
  0
LINE
  8
0
  10
9.662429929718
  20
6.579424640325
  30
0.05
  11
8.590241834186
  21
7.097974240458
  31
0.05
  0
ARC
  8
0
  10
8.533976397176
  20
7.125185868871
  30
0.05
  40
0.0625
  50
156.012372417251
  51
334.189881336766
  0
LINE
  8
0
  10
8.476874283918
  20
7.150594756359
  30
0.05
  11
6.992753046476
  21
7.811368103744
  31
0.05
  0
ARC
  8
0
  10
6.935652485044
  20
7.836779496801
  30
0.05
  40
0.0625
  50
157.8001062113
  51
336.010017450667
  0
LINE
  8
0
  10
6.877785630113
  20
7.860393974725
  30
0.05
  11
5.775390249079
  21
8.310046102304
  31
0.05
  0
ARC
  8
0
  10
5.717518723856
  20
8.333651324895
  30
0.05
  40
0.0625
  50
132.194958485608
  51
337.810118663234
  0
LINE
  8
0
  10
5.675540233222
  20
8.379955141563
  30
0.05
  11
5.382795350837
  21
8.705081271592
  31
0.05
  0
LINE
  8
0
  10
5.38279555914
  20
8.705081489142
  30
0.05
  11
2.000000313567
  21
5.659198968997
  31
0.05
  0
LINE
  8
0
  10
2.000000270333
  20
5.659198911171
  30
0.05
  11
2.292744910615
  21
5.334073050025
  31
0.05
  0
ARC
  8
0
  10
2.334565590686
  20
5.287626371609
  30
0.05
  40
0.0625
  50
-47.999999999999
  51
131.999999999999
  0
LINE
  8
0
  10
2.376386236957
  20
5.241179578886
  30
0.05
  11
4.612039048466
  21
2.758235587611
  31
0.05
  0
LINE
  8
0
  10
0.000000270333
  20
1.000000120148
  30
0
  11
0.000000270333
  21
0.000000120148
  31
0
  0
LINE
  8
0
  10
0.000000270333
  20
1.000000120148
  30
0
  11
1.000000270333
  21
1.000000120148
  31
0
  0
LINE
  8
0
  10
1.000000270333
  20
0.000000120148
  30
0
  11
1.000000270333
  21
1.000000120148
  31
0
  0
LINE
  8
0
  10
0.000000270333
  20
0.000000120148
  30
0
  11
1.000000270333
  21
0.000000120148
  31
0
  0
TEXT
  8
0
  40
0.1
  72
0
  10
0.299212868758
  20
0.692913505975
  30
0
  1
1"x1"
  50
0
  0
TEXT
  8
0
  40
0.1
  72
0
  10
0.275590821514
  20
0.43307098629
  30
0
  1
scaling
  50
0
  0
TEXT
  8
0
  40
0.1
  72
0
  10
0.208661687656
  20
0.177165474479
  30
0
  1
reference
  50
0
  0
ENDSEC
  0
EOF
